<svg width="747" height="547" viewBox="0 0 747 547" fill="none" xmlns="http://www.w3.org/2000/svg">
<path opacity="0.0845424" d="M674.32 166.249C683.698 153.731 701.454 151.18 713.979 160.552C726.379 169.83 729.005 187.315 719.957 199.81L719.68 200.187L645.38 299.374C635.916 312.007 618.34 315.21 605.041 306.802L604.639 306.544L557.865 275.948L510.705 344.593C501.937 357.356 484.564 360.694 471.702 352.171L471.313 351.909C458.543 343.146 455.204 325.783 463.732 312.928L463.994 312.54L525.793 222.586C534.999 209.185 553.141 205.492 566.841 214.144L567.255 214.41L614.898 245.575L674.32 166.249Z" fill="#67F07E"/>
<path opacity="0.0845424" d="M431.118 5.29424C433.496 1.83984 438.232 0.961285 441.696 3.33194C445.115 5.67139 446.018 10.3009 443.756 13.7421L443.664 13.8791L425.148 40.779C422.433 44.5698 417.181 45.4829 413.345 42.8606L413.208 42.7654L402.574 35.1946L391.048 53.4538C388.839 56.9536 384.234 58.0368 380.696 55.9185L380.557 55.8332C377.047 53.6305 375.96 49.0392 378.085 45.5109L378.17 45.3722L393.455 21.158C395.973 17.169 401.257 15.9705 405.258 18.4812L405.467 18.6168L405.673 18.7584L416.53 26.4883L431.118 5.29424Z" fill="#67F07E"/>
<path opacity="0.070266" fill-rule="evenodd" clip-rule="evenodd" d="M635.903 128.808V110.831H653.892C655.273 110.831 656.392 109.711 656.392 108.331V99.676C656.392 98.2952 655.273 97.176 653.892 97.176H635.903V79.0663C635.903 77.6856 634.784 76.5663 633.403 76.5663H624.608C623.227 76.5663 622.108 77.6856 622.108 79.0663V97.176H604.119C602.738 97.176 601.619 98.2952 601.619 99.676V108.331C601.619 109.711 602.738 110.831 604.119 110.831H622.108V128.808C622.108 130.189 623.227 131.308 624.608 131.308H633.403C634.784 131.308 635.903 130.189 635.903 128.808Z" fill="#00A2E9"/>
<path opacity="0.0739397" fill-rule="evenodd" clip-rule="evenodd" d="M92.6026 22C143.194 22 184.207 62.9886 184.207 113.551C184.207 164.113 143.194 205.101 92.6026 205.101C42.0112 205.101 0.998657 164.113 0.998657 113.551C0.998657 62.9886 42.0112 22 92.6026 22ZM92.6026 67.3034C67.0461 67.3034 46.3285 88.0089 46.3285 113.551C46.3285 139.092 67.0461 159.798 92.6026 159.798C118.159 159.798 138.877 139.092 138.877 113.551C138.877 88.0089 118.159 67.3034 92.6026 67.3034Z" fill="#00A2E9"/>
<path fill-rule="evenodd" clip-rule="evenodd" d="M77.5962 87H547.725C556.561 87 563.725 94.1634 563.725 103V307.224C563.725 316.061 556.561 323.224 547.725 323.224H77.5962C68.7596 323.224 61.5962 316.061 61.5962 307.224V103C61.5962 94.1634 68.7596 87 77.5962 87Z" fill="#E8F8FE"/>
<path opacity="0.383371" fill-rule="evenodd" clip-rule="evenodd" d="M85.147 87H547.725C556.561 87 563.725 94.1634 563.725 103V307.224C563.725 316.061 556.561 323.224 547.725 323.224H85.147C76.3104 323.224 69.147 316.061 69.147 307.224V103C69.147 94.1634 76.3104 87 85.147 87Z" fill="#6F6F6F"/>
<path fill-rule="evenodd" clip-rule="evenodd" d="M86.6978 94.5592H546.174C551.697 94.5592 556.174 99.0364 556.174 104.559V305.665C556.174 311.188 551.697 315.665 546.174 315.665H86.6978C81.1749 315.665 76.6978 311.188 76.6978 305.665V104.559C76.6978 99.0364 81.1749 94.5592 86.6978 94.5592Z" fill="#E8F8FE"/>
<path fill-rule="evenodd" clip-rule="evenodd" d="M281.85 295.823H351.021C354.335 295.823 357.021 298.509 357.021 301.823V315.665H275.85V301.823C275.85 298.509 278.537 295.823 281.85 295.823Z" fill="#3FB152"/>
<path fill-rule="evenodd" clip-rule="evenodd" d="M289.401 295.823H358.572C361.886 295.823 364.572 298.509 364.572 301.823V323.225H283.401V301.823C283.401 298.509 286.087 295.823 289.401 295.823Z" fill="#626262"/>
<g filter="url(#filter0_dd_4_363)">
<path d="M96.2444 104.008H221.268C224.244 104.008 226.657 106.421 226.657 109.397V150.047C226.657 153.023 224.244 155.436 221.268 155.436H96.2444C93.2682 155.436 90.8556 153.023 90.8556 150.047V109.397C90.8556 106.421 93.2682 104.008 96.2444 104.008Z" fill="black"/>
</g>
<path d="M96.2444 104.008H221.268C224.244 104.008 226.657 106.421 226.657 109.397V150.047C226.657 153.023 224.244 155.436 221.268 155.436H96.2444C93.2682 155.436 90.8556 153.023 90.8556 150.047V109.397C90.8556 106.421 93.2682 104.008 96.2444 104.008Z" fill="white"/>
<path opacity="0.454078" fill-rule="evenodd" clip-rule="evenodd" d="M132.564 133.032H157.992C158.835 133.032 159.519 133.716 159.519 134.559C159.519 135.403 158.835 136.087 157.992 136.087H132.564C131.72 136.087 131.036 135.403 131.036 134.559C131.036 133.716 131.72 133.032 132.564 133.032Z" fill="#CDF2D7"/>
<path fill-rule="evenodd" clip-rule="evenodd" d="M132.564 124.375H147.819C148.663 124.375 149.347 125.059 149.347 125.903C149.347 126.747 148.663 127.431 147.819 127.431H132.564C131.72 127.431 131.036 126.747 131.036 125.903C131.036 125.059 131.72 124.375 132.564 124.375Z" fill="#00A2E9"/>
<path fill-rule="evenodd" clip-rule="evenodd" d="M205.813 122.284C207.982 119.43 212.053 118.877 214.904 121.049C215.56 121.549 216.115 122.169 216.539 122.876C216.757 123.241 216.639 123.714 216.275 123.933C215.91 124.151 215.438 124.033 215.22 123.668C214.896 123.129 214.473 122.655 213.973 122.274C211.842 120.651 208.818 121.022 207.14 123.085L207.036 123.216L204.652 126.353C200.927 131.254 194.624 133.414 188.693 131.849L188.439 131.779L186.52 131.237C186.397 131.202 186.272 131.171 186.147 131.143C182.639 130.369 179.168 132.541 178.309 136.011L178.269 136.182L177.873 137.98C177.733 138.617 177.461 139.217 177.076 139.742C175.55 141.817 172.633 142.262 170.559 140.735C170.217 140.483 170.144 140.001 170.395 139.659C170.647 139.316 171.128 139.243 171.47 139.495C172.86 140.518 174.815 140.22 175.837 138.829C176.063 138.521 176.23 138.175 176.332 137.808L176.371 137.649L176.767 135.851C177.735 131.451 182.083 128.67 186.478 129.639L186.709 129.694L186.938 129.755L188.857 130.297C194.171 131.799 199.857 129.946 203.272 125.622L203.428 125.421L205.813 122.284Z" fill="#1CAB43"/>
<path fill-rule="evenodd" clip-rule="evenodd" d="M198.882 121.353C200.452 117.857 204.557 116.297 208.049 117.869C208.751 118.184 209.395 118.615 209.956 119.143C211.275 120.384 212.496 122.347 213.641 125.035C213.808 125.426 213.627 125.878 213.236 126.045C212.845 126.212 212.393 126.03 212.227 125.639C211.158 123.13 210.042 121.338 208.902 120.264C208.466 119.854 207.964 119.519 207.418 119.273C204.75 118.072 201.623 119.22 200.353 121.838L200.285 121.985L199.79 123.086C199.675 123.343 199.542 123.591 199.394 123.83C197.566 126.766 193.707 127.664 190.774 125.834C190.425 125.616 190.042 125.458 189.641 125.366C187.689 124.919 185.744 126.102 185.23 128.022L185.196 128.157L184.34 131.899C184.082 133.026 183.535 134.067 182.753 134.917C180.312 137.571 176.214 137.785 173.513 135.434L173.369 135.305L169.883 132.092C169.57 131.804 169.55 131.317 169.838 131.004C170.106 130.712 170.548 130.675 170.86 130.906L170.925 130.959L174.411 134.173C176.484 136.084 179.712 135.95 181.621 133.875C182.176 133.271 182.577 132.543 182.792 131.754L182.841 131.555L183.697 127.813C184.344 124.985 187.159 123.217 189.984 123.865C190.481 123.979 190.958 124.165 191.4 124.416L191.588 124.527C193.8 125.907 196.71 125.23 198.088 123.016C198.163 122.896 198.232 122.773 198.296 122.646L198.387 122.455L198.882 121.353Z" fill="#CDF2D7"/>
<path d="M113.489 140.669C119.248 140.669 123.916 135.996 123.916 130.231C123.916 124.466 119.248 119.793 113.489 119.793C107.731 119.793 103.062 124.466 103.062 130.231C103.062 135.996 107.731 140.669 113.489 140.669Z" fill="#1CAB43"/>
<g filter="url(#filter1_dd_4_363)">
<path d="M95.8556 162.592H254.805C257.566 162.592 259.805 164.83 259.805 167.592V300.271C259.805 303.033 257.566 305.271 254.805 305.271H95.8556C93.0942 305.271 90.8556 303.033 90.8556 300.271V167.592C90.8556 164.83 93.0942 162.592 95.8556 162.592Z" fill="black"/>
</g>
<path d="M95.8556 162.592H254.805C257.566 162.592 259.805 164.83 259.805 167.592V300.271C259.805 303.033 257.566 305.271 254.805 305.271H95.8556C93.0942 305.271 90.8556 303.033 90.8556 300.271V167.592C90.8556 164.83 93.0942 162.592 95.8556 162.592Z" fill="white"/>
<mask id="mask0_4_363" style="mask-type:luminance" maskUnits="userSpaceOnUse" x="90" y="162" width="170" height="144">
<g opacity="0.414737">
<path d="M95.8556 162.592H254.805C257.566 162.592 259.805 164.83 259.805 167.592V300.271C259.805 303.033 257.566 305.271 254.805 305.271H95.8556C93.0942 305.271 90.8556 303.033 90.8556 300.271V167.592C90.8556 164.83 93.0942 162.592 95.8556 162.592Z" fill="#CEF9FF"/>
</g>
</mask>
<g mask="url(#mask0_4_363)">
<path opacity="0.414737" fill-rule="evenodd" clip-rule="evenodd" d="M113.508 270.982C126.898 267.149 136.545 261.32 142.449 253.497C151.305 241.761 154.291 230.386 169.522 230.386C184.754 230.386 186.707 247.808 203.172 247.808C219.638 247.808 220.538 225.59 226.011 216.769C229.659 210.887 234.632 207.947 240.928 207.947V282.348C240.928 284.049 239.549 285.428 237.848 285.428H116.588C114.887 285.428 113.508 284.049 113.508 282.348V270.982Z" fill="#CEFFD6"/>
</g>
<mask id="mask1_4_363" style="mask-type:luminance" maskUnits="userSpaceOnUse" x="90" y="162" width="170" height="144">
<path d="M95.8556 162.592H254.805C257.566 162.592 259.805 164.83 259.805 167.592V300.271C259.805 303.033 257.566 305.271 254.805 305.271H95.8556C93.0942 305.271 90.8556 303.033 90.8556 300.271V167.592C90.8556 164.83 93.0942 162.592 95.8556 162.592Z" fill="#8EEAF6"/>
</mask>
<g mask="url(#mask1_4_363)">
<path d="M156.925 176.765H104.069V182.435H156.925V176.765Z" fill="#8EF69F"/>
</g>
<mask id="mask2_4_363" style="mask-type:luminance" maskUnits="userSpaceOnUse" x="90" y="162" width="170" height="144">
<path d="M95.8556 162.592H254.805C257.566 162.592 259.805 164.83 259.805 167.592V300.271C259.805 303.033 257.566 305.271 254.805 305.271H95.8556C93.0942 305.271 90.8556 303.033 90.8556 300.271V167.592C90.8556 164.83 93.0942 162.592 95.8556 162.592Z" fill="#8EEAF6" fill-opacity="0.401934"/>
</mask>
<g mask="url(#mask2_4_363)">
<path fill-rule="evenodd" clip-rule="evenodd" d="M106.904 190.939H125.775C127.34 190.939 128.61 192.208 128.61 193.773C128.61 195.339 127.34 196.608 125.775 196.608H106.904C105.339 196.608 104.069 195.339 104.069 193.773C104.069 192.208 105.339 190.939 106.904 190.939Z" fill="#8EF69F" fill-opacity="0.401934"/>
</g>
<mask id="mask3_4_363" style="mask-type:luminance" maskUnits="userSpaceOnUse" x="90" y="162" width="170" height="144">
<path d="M95.8556 162.592H254.805C257.566 162.592 259.805 164.83 259.805 167.592V300.271C259.805 303.033 257.566 305.271 254.805 305.271H95.8556C93.0942 305.271 90.8556 303.033 90.8556 300.271V167.592C90.8556 164.83 93.0942 162.592 95.8556 162.592Z" fill="#8EEAF6" fill-opacity="0.451705"/>
</mask>
<g mask="url(#mask3_4_363)">
<path fill-rule="evenodd" clip-rule="evenodd" d="M227.242 183.38C229.066 183.38 230.545 181.899 230.545 180.073C230.545 178.246 229.066 176.765 227.242 176.765C225.417 176.765 223.938 178.246 223.938 180.073C223.938 181.899 225.417 183.38 227.242 183.38Z" fill="#AFD0B4" fill-opacity="0.451705"/>
</g>
<mask id="mask4_4_363" style="mask-type:luminance" maskUnits="userSpaceOnUse" x="90" y="162" width="170" height="144">
<path d="M95.8556 162.592H254.805C257.566 162.592 259.805 164.83 259.805 167.592V300.271C259.805 303.033 257.566 305.271 254.805 305.271H95.8556C93.0942 305.271 90.8556 303.033 90.8556 300.271V167.592C90.8556 164.83 93.0942 162.592 95.8556 162.592Z" fill="#8EEAF6" fill-opacity="0.451705"/>
</mask>
<g mask="url(#mask4_4_363)">
<path fill-rule="evenodd" clip-rule="evenodd" d="M236.68 183.38C238.505 183.38 239.984 181.899 239.984 180.073C239.984 178.246 238.505 176.765 236.68 176.765C234.856 176.765 233.377 178.246 233.377 180.073C233.377 181.899 234.856 183.38 236.68 183.38Z" fill="#AFD0B4" fill-opacity="0.451705"/>
</g>
<mask id="mask5_4_363" style="mask-type:luminance" maskUnits="userSpaceOnUse" x="90" y="162" width="170" height="144">
<path d="M95.8556 162.592H254.805C257.566 162.592 259.805 164.83 259.805 167.592V300.271C259.805 303.033 257.566 305.271 254.805 305.271H95.8556C93.0942 305.271 90.8556 303.033 90.8556 300.271V167.592C90.8556 164.83 93.0942 162.592 95.8556 162.592Z" fill="#8EEAF6" fill-opacity="0.451705"/>
</mask>
<g mask="url(#mask5_4_363)">
<path fill-rule="evenodd" clip-rule="evenodd" d="M246.119 183.38C247.943 183.38 249.422 181.899 249.422 180.073C249.422 178.246 247.943 176.765 246.119 176.765C244.294 176.765 242.815 178.246 242.815 180.073C242.815 181.899 244.294 183.38 246.119 183.38Z" fill="#AFD0B4" fill-opacity="0.451705"/>
</g>
<g filter="url(#filter2_d_4_363)">
<path d="M293.717 117.237H518.929C523.063 117.237 526.414 120.588 526.414 124.721V275.237C526.414 279.37 523.063 282.721 518.929 282.721H293.717C289.583 282.721 286.233 279.37 286.233 275.237V124.721C286.233 120.588 289.583 117.237 293.717 117.237Z" fill="black"/>
</g>
<path d="M293.717 117.237H518.929C523.063 117.237 526.414 120.588 526.414 124.721V275.237C526.414 279.37 523.063 282.721 518.929 282.721H293.717C289.583 282.721 286.233 279.37 286.233 275.237V124.721C286.233 120.588 289.583 117.237 293.717 117.237Z" fill="white"/>
<path fill-rule="evenodd" clip-rule="evenodd" d="M326.851 202.101V261.287H318.021V202.101H326.851Z" fill="#E4FFE9"/>
<path fill-rule="evenodd" clip-rule="evenodd" d="M326.851 216.245V261.287H318.021V216.245H326.851Z" fill="#CDF2D7"/>
<path fill-rule="evenodd" clip-rule="evenodd" d="M326.851 244.532V261.287H318.021V244.532H326.851Z" fill="#1CAB43"/>
<path fill-rule="evenodd" clip-rule="evenodd" d="M348.044 187.957V261.287H339.214V187.957H348.044Z" fill="#E4FFE9"/>
<path fill-rule="evenodd" clip-rule="evenodd" d="M348.044 209.173V261.287H339.214V209.173H348.044Z" fill="#CDF2D7"/>
<path fill-rule="evenodd" clip-rule="evenodd" d="M348.044 244.532V261.287H339.214V244.532H348.044Z" fill="#1CAB43"/>
<path fill-rule="evenodd" clip-rule="evenodd" d="M369.236 198.565V261.287H360.406V198.565H369.236Z" fill="#E4FFE9"/>
<path fill-rule="evenodd" clip-rule="evenodd" d="M369.236 219.781V261.287H360.406V219.781H369.236Z" fill="#CDF2D7"/>
<path fill-rule="evenodd" clip-rule="evenodd" d="M369.236 248.069V261.287H360.406V248.069H369.236Z" fill="#1CAB43"/>
<path fill-rule="evenodd" clip-rule="evenodd" d="M390.429 180.885V261.287H381.599V180.885H390.429Z" fill="#E4FFE9"/>
<path fill-rule="evenodd" clip-rule="evenodd" d="M390.429 202.101V261.287H381.599V202.101H390.429Z" fill="#CDF2D7"/>
<path fill-rule="evenodd" clip-rule="evenodd" d="M390.429 230.389V261.287H381.599V230.389H390.429Z" fill="#1CAB43"/>
<path fill-rule="evenodd" clip-rule="evenodd" d="M411.621 166.741V261.287H402.791V166.741H411.621Z" fill="#E4FFE9"/>
<path fill-rule="evenodd" clip-rule="evenodd" d="M411.621 195.029V261.287H402.791V195.029H411.621Z" fill="#CDF2D7"/>
<path fill-rule="evenodd" clip-rule="evenodd" d="M411.621 237.461V261.287H402.791V237.461H411.621Z" fill="#1CAB43"/>
<path fill-rule="evenodd" clip-rule="evenodd" d="M432.814 187.957V261.287H423.984V187.957H432.814Z" fill="#E4FFE9"/>
<path fill-rule="evenodd" clip-rule="evenodd" d="M432.814 209.173V261.287H423.984V209.173H432.814Z" fill="#CDF2D7"/>
<path fill-rule="evenodd" clip-rule="evenodd" d="M432.814 241.704V261.287H423.984V241.704H432.814Z" fill="#1CAB43"/>
<path fill-rule="evenodd" clip-rule="evenodd" d="M454.006 195.029V261.287H445.176V195.029H454.006Z" fill="#E4FFE9"/>
<path fill-rule="evenodd" clip-rule="evenodd" d="M454.006 209.173V261.287H445.176V209.173H454.006Z" fill="#CDF2D7"/>
<path fill-rule="evenodd" clip-rule="evenodd" d="M454.006 236.753V261.287H445.176V236.753H454.006Z" fill="#1CAB43"/>
<path fill-rule="evenodd" clip-rule="evenodd" d="M475.199 180.885V261.287H466.368V180.885H475.199Z" fill="#E4FFE9"/>
<path fill-rule="evenodd" clip-rule="evenodd" d="M475.199 209.173V261.287H466.368V209.173H475.199Z" fill="#CDF2D7"/>
<path fill-rule="evenodd" clip-rule="evenodd" d="M475.199 243.825V261.287H466.368V243.825H475.199Z" fill="#1CAB43"/>
<path fill-rule="evenodd" clip-rule="evenodd" d="M496.391 195.029V261.287H487.561V195.029H496.391Z" fill="#E4FFE9"/>
<path fill-rule="evenodd" clip-rule="evenodd" d="M496.391 209.173V261.287H487.561V209.173H496.391Z" fill="#CDF2D7"/>
<path fill-rule="evenodd" clip-rule="evenodd" d="M496.391 243.825V261.287H487.561V243.825H496.391Z" fill="#1CAB43"/>
<path opacity="0.57573" fill-rule="evenodd" clip-rule="evenodd" d="M317.317 145.525H387.954C389.126 145.525 390.076 146.475 390.076 147.646C390.076 148.818 389.126 149.768 387.954 149.768H317.317C316.145 149.768 315.196 148.818 315.196 147.646C315.196 146.475 316.145 145.525 317.317 145.525Z" fill="#113300"/>
<path d="M354.755 133.502H315.196V137.746H354.755V133.502Z" fill="#00A2E9"/>
<path fill-rule="evenodd" clip-rule="evenodd" d="M559.04 451.882L570.482 542.29L564.483 542.21L553.04 452.728L559.04 451.882Z" fill="#A5A5A5"/>
<path fill-rule="evenodd" clip-rule="evenodd" d="M472.171 456.648C472.171 451.431 476.4 447.203 481.616 447.203H519.379C525.1 447.203 529.882 442.849 530.418 437.153L536.456 372.96C536.991 367.263 541.774 362.91 547.495 362.91H571.195C577.319 362.91 582.283 367.874 582.283 373.998C582.283 374.282 582.272 374.565 582.251 374.848L576.026 455.854C575.582 461.632 570.765 466.093 564.971 466.093H481.616C476.4 466.093 472.171 461.864 472.171 456.648Z" fill="#CCCCCC"/>
<path fill-rule="evenodd" clip-rule="evenodd" d="M570.941 362.91C571.516 362.91 572.081 362.954 572.632 363.038C572.721 363.6 572.767 364.176 572.767 364.762C572.767 365.046 572.756 365.331 572.734 365.614L566.514 446.332C566.069 452.108 561.252 456.568 555.459 456.568H472.329L472.173 456.567C472.172 456.506 472.171 456.445 472.171 456.384C472.171 451.181 476.389 446.963 481.592 446.963H519.242C524.962 446.963 529.743 442.611 530.281 436.916L536.314 372.957C536.851 367.262 541.632 362.91 547.353 362.91H570.941Z" fill="#A5A5A5"/>
<path fill-rule="evenodd" clip-rule="evenodd" d="M546.275 347.34C558.473 344.498 559.276 327.746 550.002 321.935C559.567 301.875 537.449 281.958 522.299 294.241C512.367 289.987 504.114 306.586 513.356 319.478C509.481 341.613 517.367 347.335 531.583 347.578L546.275 347.34Z" fill="#422851"/>
<path fill-rule="evenodd" clip-rule="evenodd" d="M546.123 343.339C546.123 343.339 540.189 341.946 539.983 332.217C539.778 322.489 539.922 319.169 539.922 319.169L526.852 318.933C526.852 318.933 526.709 329.774 526.707 333.696C526.702 344.229 519.367 343.339 519.367 343.339C519.367 343.339 520.891 351.88 532.735 352.546C541.982 353.067 546.123 343.339 546.123 343.339Z" fill="url(#paint0_linear_4_363)"/>
<path fill-rule="evenodd" clip-rule="evenodd" d="M542.969 314.311C548.8 314.085 547.849 322.626 541.792 322.614C541.792 322.614 538.274 334.746 526.059 334.746C516.14 334.746 515.495 320.606 515.405 317.785C515.308 314.777 515.296 304.897 515.296 304.897L543.196 304.884L542.969 314.311Z" fill="url(#paint1_linear_4_363)"/>
<path d="M528.414 326.596C528.414 326.596 525.505 329.06 522.136 326.752" stroke="#F77B7B" stroke-width="1.5" stroke-linecap="round"/>
<path d="M526.494 329.45C525.589 329.868 524.717 329.898 523.939 329.481" stroke="#F49494" stroke-linecap="round"/>
<path d="M542.375 318.904C542.315 317.534 542.732 316.446 544.129 316.227" stroke="#F77B7B" stroke-linecap="round"/>
<path fill-rule="evenodd" clip-rule="evenodd" d="M543.891 313.256C543.891 313.256 540.696 317.546 540.048 317.569C539.401 317.592 539.174 311.989 539.174 311.989C535.254 311.689 525.332 309.712 522.9 305.107C521.199 309.17 517.948 310.975 515.812 310.629L515.407 319.261L514.41 301.906H544.673L543.891 313.256Z" fill="#422851"/>
<path fill-rule="evenodd" clip-rule="evenodd" d="M486.404 514.891C486.404 514.891 491.635 525.462 487.347 528.793C483.052 532.125 471.708 538.368 471.708 538.368L501.762 536.478L495.081 513.424L486.404 514.891Z" fill="url(#paint2_linear_4_363)"/>
<path fill-rule="evenodd" clip-rule="evenodd" d="M498.855 524.951C497.372 525.125 498.955 530.121 495.744 530.501C492.539 530.88 490.982 526.147 487.345 527.647C483.708 529.148 470.444 536.906 469.922 540.078C469.393 543.249 474.335 544.182 481.112 543.466C487.889 542.75 489.138 540.337 494.226 541.309C499.307 542.28 503.114 540.732 502.946 537.017C502.779 533.303 500.338 524.778 498.855 524.951Z" fill="#222D4E"/>
<path fill-rule="evenodd" clip-rule="evenodd" d="M485.686 528.417L486.346 529.407C486.653 529.867 486.528 530.488 486.069 530.794C486.047 530.808 486.025 530.822 486.002 530.835L477.036 535.841C476.745 536.003 476.393 536.01 476.096 535.859L474.704 535.153C476.89 533.569 478.677 532.379 480.653 531.21C482.169 530.313 483.848 529.388 485.686 528.417Z" fill="white" fill-opacity="0.540975"/>
<path fill-rule="evenodd" clip-rule="evenodd" d="M531.676 421.725C522.578 422.131 471.938 433.338 462.737 435.242C453.537 437.146 445.759 447.448 452.774 459.377C460.654 472.768 480.986 510.799 485.922 519.373C488.365 523.616 500.691 521.237 497.796 514.115C492.398 500.838 489.892 467.485 476.131 455.324C476.131 455.324 522.408 463.382 542.398 454.152C556.926 447.442 553.639 420.742 531.676 421.725Z" fill="url(#paint3_linear_4_363)"/>
<path fill-rule="evenodd" clip-rule="evenodd" d="M467.209 367.893C467.209 367.893 467.312 360.486 464.722 356.615C462.133 352.744 462.03 348.632 460.07 348.766C458.11 348.901 460.051 358.458 460.051 358.458C460.051 358.458 457.564 357.508 455.778 356.306C453.991 355.103 448.574 349.176 447.308 350.226C445.162 352.016 448.619 362.111 450.502 364.129C452.391 366.148 462.711 372.787 462.711 372.787L467.209 367.893Z" fill="url(#paint4_linear_4_363)"/>
<path fill-rule="evenodd" clip-rule="evenodd" d="M523.123 363.454C518.89 373.276 511.14 391.32 507.946 396.703C503.942 403.444 497.628 406.414 490.236 401.413C482.469 396.157 461.082 375.657 460.454 371.014C459.833 366.37 465.068 360.799 469.804 363.683C474.541 366.568 494.223 382.956 494.223 382.956C494.223 382.956 502.166 362.583 508.555 350.782C514.089 340.572 529.565 348.523 523.123 363.454Z" fill="#33B6F0"/>
<path fill-rule="evenodd" clip-rule="evenodd" d="M494.14 382.966C492.718 387.793 491.841 390.067 491.508 389.787C491.176 389.508 491.303 386.603 491.889 381.074L494.14 382.966Z" fill="black" fill-opacity="0.302803"/>
<path fill-rule="evenodd" clip-rule="evenodd" d="M565.42 351.62C565.42 351.62 555.221 385.791 554.919 392.259C554.617 398.728 563.261 417.74 561.789 422.545C558.396 433.65 515.073 438.431 513.417 423.493C512.645 416.526 514.252 410.273 512.401 402.064C510.556 393.855 503.142 381.657 507.347 370.188C511.553 358.719 510.426 348.109 513.434 346.103C516.441 344.098 523.472 341.968 523.472 341.968C526.891 347.002 538.434 346.929 543.942 341.613C543.942 341.613 557.625 344.269 565.42 351.62Z" fill="#64CAF6"/>
<path fill-rule="evenodd" clip-rule="evenodd" d="M556.281 357.154C549.482 367.949 549.502 386.745 545.851 389.206C542.2 391.668 527.988 389.252 527.988 391.202C527.988 393.151 547.627 411.016 544.403 419.557C542.715 424.028 543.173 428.029 545.777 431.559L546.627 431.373C554.365 429.624 560.586 426.482 561.789 422.545C563.261 417.74 553.62 398.728 553.922 392.259C554.178 386.768 562.285 361.315 564.729 353.747C562.739 350.234 559.923 351.37 556.281 357.154Z" fill="black" fill-opacity="0.199355"/>
<path fill-rule="evenodd" clip-rule="evenodd" d="M544.687 385.794C544.687 385.794 536.096 378.187 533.466 377.304C530.837 376.421 515.434 375.36 515.531 377.355C515.642 379.493 523.915 379.37 524.772 380.421C525.629 381.472 525.824 388.659 529.064 389.465C532.298 390.272 541.992 391.663 541.992 391.663L544.687 385.794Z" fill="url(#paint5_linear_4_363)"/>
<path fill-rule="evenodd" clip-rule="evenodd" d="M567.542 353.583C576.593 366.364 584.321 385.833 587.287 393.423C590.253 401.013 587.261 412.462 574.218 410.214C561.198 407.973 540.483 395.792 538.191 392.239C535.899 388.686 539.381 382.221 543.766 383.067C547.828 383.85 567.979 392.423 567.979 392.423C567.979 392.423 555.015 369.432 551.85 363.269C546.562 352.976 559.57 342.322 567.542 353.583Z" fill="#33B6F0"/>
<path fill-rule="evenodd" clip-rule="evenodd" d="M567.774 392.266C572.3 394.516 574.287 395.169 573.735 394.225C573.183 393.282 570.332 391.152 565.182 387.837L567.774 392.266Z" fill="black" fill-opacity="0.302803"/>
<path fill-rule="evenodd" clip-rule="evenodd" d="M235.061 511.194C235.061 511.194 234.925 519.905 240.272 523C245.617 526.094 253.9 531.844 253.9 531.844L222.392 532.912L223.29 511.116L235.061 511.194Z" fill="#F8CFCF"/>
<path fill-rule="evenodd" clip-rule="evenodd" d="M221.292 520.794L220.779 534.926H228.097L228.599 533.105C228.599 533.105 231.355 532.992 232.947 533.779C234.63 534.611 234.856 535.014 234.856 535.014L258.07 535.063C258.07 535.063 259.215 530.495 252.139 527.191C245.062 523.887 239.91 519.197 238.931 518.717C237.946 518.233 235.957 517.96 234.556 519.097C233.155 520.232 232.048 523.219 228.874 523.312C224.789 523.433 222.442 518.404 221.292 520.794Z" fill="#4B4B4B"/>
<path d="M241.131 520.25L238.724 522.577" stroke="white" stroke-width="2" stroke-linecap="round"/>
<path d="M244.64 522.014L242.233 524.342" stroke="white" stroke-width="2" stroke-linecap="round"/>
<path d="M248.149 523.779L245.742 526.107" stroke="white" stroke-width="2" stroke-linecap="round"/>
<path fill-rule="evenodd" clip-rule="evenodd" d="M212 323C212 323 220.753 419.38 221.026 426.079C221.298 432.779 218.214 444.342 218.274 456.874C218.314 465.229 218.69 484.129 219.4 513.575L238.71 513.984C244.12 460.773 246.854 430.177 246.913 422.198C247 410.229 247.744 324.152 247.744 324.152L212 323Z" fill="#383838"/>
<path opacity="0.283552" fill-rule="evenodd" clip-rule="evenodd" d="M225.919 429.079L225.94 429.318C226.231 433.404 223.693 446.846 218.327 469.645L218.274 456.874C218.215 444.565 221.189 433.192 221.037 426.443L221.026 426.079C220.934 423.822 219.879 411.379 218.52 395.872L219.154 398.143C222.877 411.595 225.132 421.908 225.919 429.079Z" fill="white" fill-opacity="0.192499"/>
<path fill-rule="evenodd" clip-rule="evenodd" d="M188.477 509.966L184.753 532.525L198.481 532.456L198.915 509.613L188.477 509.966Z" fill="#F8CFCF"/>
<path fill-rule="evenodd" clip-rule="evenodd" d="M184.637 522.556L184.526 525.909C183.155 527.431 182.167 530.474 181.562 535.039C181.562 538.228 202.777 538.134 203.796 535.039C203.056 530.067 201.886 526.956 200.289 525.706L200.276 522.384C200.271 521.031 199.361 519.849 198.054 519.498L195.991 518.944C193.984 516.017 191.249 516.121 188.906 519.31L187 519.723C185.656 520.015 184.682 521.182 184.637 522.556Z" fill="#4B4B4B"/>
<path d="M189.685 521.749H195.243" stroke="white" stroke-width="2" stroke-linecap="round"/>
<path d="M189.685 524.393H195.243" stroke="white" stroke-width="2" stroke-linecap="round"/>
<path d="M190.569 527.037H194.359" stroke="white" stroke-width="2" stroke-linecap="round"/>
<path fill-rule="evenodd" clip-rule="evenodd" d="M195.401 324.265C195.401 324.265 189.267 390.331 189.35 402.982C189.433 415.635 191.238 421.191 188.67 430.267C186.958 436.318 185.371 463.49 183.911 511.786L202.902 513.864C210.991 462.186 215.475 432.764 216.354 425.599C217.674 414.851 233.98 323.353 233.98 323.353L195.401 324.265Z" fill="#2E2E2E"/>
<path opacity="0.283552" fill-rule="evenodd" clip-rule="evenodd" d="M200.53 369.105L199.372 373.298C195.98 385.673 192.849 398.76 193.669 417.455L193.708 418.308C193.91 422.358 191.334 445.861 185.98 488.816L185.471 491.835C184.945 494.915 184.478 497.542 184.068 499.717L184.185 495.913C184.867 474.914 186.704 437.215 188.67 430.267C191.238 421.191 189.433 415.635 189.35 402.982C189.292 394.126 192.28 359.097 194.078 338.876L195.401 324.265L203.417 324.075L203.436 326.326C203.578 347.099 202.609 361.358 200.53 369.105Z" fill="white" fill-opacity="0.192499"/>
<path fill-rule="evenodd" clip-rule="evenodd" d="M288.834 242.566C288.834 242.566 287.249 233.828 287.819 232.058C288.306 230.529 292.908 228.324 292.908 228.324C292.908 228.324 300.913 215.818 302.664 217.091C304.089 218.123 298.496 227.343 298.496 227.343C298.496 227.343 303.597 232.636 303.525 235.002C303.454 237.368 295.2 244.774 295.2 244.774L288.834 242.566Z" fill="#F8CFCF"/>
<path fill-rule="evenodd" clip-rule="evenodd" d="M293.08 228.198C293.08 228.198 296.625 227.721 297.189 228.812C297.67 229.742 294.725 232.379 294.725 233.12C294.725 233.861 294.767 239.471 295.004 239.522C295.241 239.573 298.555 230.367 297.848 228.42C297.267 226.821 293.08 228.198 293.08 228.198Z" fill="#F28585"/>
<path fill-rule="evenodd" clip-rule="evenodd" d="M246.546 253.684C237.26 245.662 223.317 260.124 238.865 273.569C244.796 278.699 263.428 291.493 267.995 294.307C275.266 298.785 281.241 294.744 283.697 287.697C285.78 281.723 298.238 249.743 296.653 245.046C295.619 241.982 290.071 239.001 287.285 241.412C283.215 244.935 270.766 275.839 270.766 275.839C270.766 275.839 257.103 262.805 246.546 253.684Z" fill="#868686"/>
<path fill-rule="evenodd" clip-rule="evenodd" d="M270.766 275.839C273.484 279.137 274.941 280.534 275.138 280.03C275.334 279.526 274.256 277.156 271.904 272.918L270.766 275.839Z" fill="black" fill-opacity="0.159856"/>
<path d="M286.204 243.393C289.443 241.893 292.983 243.748 294.933 246.724" stroke="#5386BF" stroke-linecap="round"/>
<path fill-rule="evenodd" clip-rule="evenodd" d="M206.741 244.431C206.741 244.431 212.079 243.203 212.265 234.628C212.45 226.053 212.32 223.125 212.32 223.125L224.976 222.917C224.976 222.917 225.103 232.474 225.106 235.931C225.11 243.456 230.811 245.49 230.811 245.49C230.811 245.49 230.338 253.718 219.683 254.306C211.364 254.765 206.741 244.431 206.741 244.431Z" fill="#F8C5C5"/>
<path fill-rule="evenodd" clip-rule="evenodd" d="M236.251 213.882L235.968 221.986C238.36 219.23 239.975 215.814 240.453 211.433L236.251 213.882Z" fill="url(#paint6_linear_4_363)"/>
<path fill-rule="evenodd" clip-rule="evenodd" d="M211.158 218.791C205.912 218.592 206.768 226.12 212.217 226.11C212.217 226.11 218.073 237.653 227.267 237.683C231.696 237.698 233.142 233.83 234.469 231.116C235.797 228.401 236.772 224.34 236.852 221.853C236.94 219.202 236.951 210.492 236.951 210.492L210.954 210.481L211.158 218.791Z" fill="#F8CFCF"/>
<path fill-rule="evenodd" clip-rule="evenodd" d="M236.951 214.489H218.667C218.475 217.728 217.378 220.417 214.592 222.401C214.671 227.146 216.29 230.6 219.097 233.023C221.542 226.155 236.494 228.034 235.407 232.515C233.122 241.929 211.707 242.142 213.006 220.476C212.152 219.334 209.096 219.12 208.091 220.262C206.373 215.529 207.106 208.832 212.074 207.864C208.174 197.777 261.196 195.643 236.951 214.489Z" fill="#424242"/>
<path d="M225.236 232.099C225.236 232.099 227.618 233.815 230.754 231.939" stroke="#CC6969" stroke-linecap="round"/>
<path d="M211.976 223.089C212.03 221.881 211.654 220.922 210.398 220.729" stroke="#DE6767" stroke-linecap="round"/>
<path fill-rule="evenodd" clip-rule="evenodd" d="M209.089 243L224.191 252.796L231.001 244.887C231.001 244.887 245.348 249.327 248.009 254.518C251.85 262.008 246.79 322.022 248.996 325.643C253.696 333.36 247.446 338.658 226.756 340.604C206.067 342.55 187.711 340.957 191.042 330.658C194.374 320.359 181.519 253.147 192.852 249.445C196.393 248.288 209.089 243 209.089 243Z" fill="#7E7E7E"/>
<path fill-rule="evenodd" clip-rule="evenodd" d="M198.896 261.529C199.811 263.144 199.34 268.737 197.482 278.309C195.899 286.464 197.709 294.899 202.486 301.705L202.755 302.081C204.371 304.311 205.86 307.247 207.223 310.889C210.567 319.82 202.855 327.266 208.765 341.239L208.05 341.205C196.454 340.606 188.789 337.623 191.042 330.658C193.774 322.214 185.624 275.51 188.846 256.921C194.426 258.015 197.776 259.551 198.896 261.529Z" fill="black" fill-opacity="0.159856"/>
<path fill-rule="evenodd" clip-rule="evenodd" d="M209.089 243L222.598 251.795C220.617 254.093 219.555 256.766 219.154 259.709C213.963 255.656 208.566 249.992 206.894 243.902L209.089 243Z" fill="#B1B1B1"/>
<path fill-rule="evenodd" clip-rule="evenodd" d="M225.259 251.566C227.543 253.108 229.365 255.839 230.849 258.944C232.627 255.376 233.308 250.664 233.308 245.639L231.078 244.759L225.259 251.566Z" fill="#B1B1B1"/>
<path fill-rule="evenodd" clip-rule="evenodd" d="M222.598 251.794L222.774 251.893C223.584 252.344 224.594 252.211 225.259 251.566C230.352 270.207 233.934 290.724 235.017 311.576L229.702 320.39L223.485 312.141C224.294 290.47 224.289 269.339 222.598 251.794Z" fill="#353535"/>
<path d="M238.889 296.81L251.195 298.609C252.503 298.8 253.427 299.989 253.289 301.304L251.08 322.318C250.938 323.672 249.726 324.653 248.372 324.511C248.339 324.508 248.306 324.504 248.274 324.499L235.968 322.7C234.659 322.509 233.735 321.319 233.874 320.004L236.082 298.99C236.224 297.637 237.437 296.655 238.79 296.797C238.823 296.801 238.856 296.805 238.889 296.81Z" fill="#F5F5F5"/>
<path fill-rule="evenodd" clip-rule="evenodd" d="M240.472 296.407L253.34 298.93L262.144 298.783C263.505 298.76 264.627 299.845 264.649 301.205C264.651 301.305 264.647 301.405 264.636 301.504L262.431 322.486C262.301 323.724 261.267 324.671 260.022 324.692L250.615 324.849L237.317 322.241C236.065 321.995 235.207 320.834 235.341 319.565L237.548 298.567C237.69 297.214 238.902 296.232 240.256 296.374C240.328 296.382 240.401 296.393 240.472 296.407Z" fill="#EDEA9C"/>
<path d="M241.752 302.08L247.657 303.161C248.48 303.312 249.048 304.07 248.96 304.902L248.709 307.296C248.616 308.175 247.829 308.813 246.95 308.72C246.91 308.716 246.87 308.71 246.83 308.703L240.924 307.622C240.101 307.472 239.533 306.713 239.621 305.881L239.873 303.487C239.965 302.608 240.752 301.971 241.631 302.063C241.671 302.067 241.712 302.073 241.752 302.08Z" fill="#9E9A1F"/>
<path d="M253.236 298.919L253.753 298.974C254.192 299.02 254.511 299.413 254.465 299.853L251.917 324.097C251.87 324.536 251.477 324.855 251.037 324.809L250.52 324.754C250.081 324.708 249.762 324.315 249.808 323.875L252.357 299.631C252.403 299.192 252.796 298.873 253.236 298.919Z" fill="#D3D5DA"/>
<path d="M253.938 298.993L254.455 299.048C254.895 299.094 255.214 299.487 255.167 299.927L252.619 324.171C252.573 324.61 252.179 324.929 251.74 324.883L251.223 324.828C250.784 324.782 250.465 324.389 250.511 323.949L253.059 299.705C253.105 299.266 253.499 298.947 253.938 298.993Z" fill="#A29D0A"/>
<path fill-rule="evenodd" clip-rule="evenodd" d="M222.89 308.414C222.89 308.414 227.476 307.498 229.354 306.033C231.23 304.569 236.915 303.534 236.915 303.534L235.096 307.34C235.096 307.34 249.029 306.04 249.358 307.406C249.689 308.771 245.659 310.256 245.659 310.256C245.659 310.256 243.672 313.944 241.748 316.082C239.928 318.105 230.884 317.864 227.714 316.602C224.975 315.511 221.996 316.056 221.996 316.056L222.89 308.414Z" fill="#F8CFCF"/>
<path fill-rule="evenodd" clip-rule="evenodd" d="M186.001 255.239C190.983 244.542 208.042 251.749 203.743 263.209C199.579 274.31 189.489 300.23 189.489 300.23C189.489 300.23 221.461 304.263 223.954 306.144C227.279 308.653 225.224 315.813 222.397 317.088C220.006 318.166 202.244 318.796 184.866 317.435C176.268 316.762 169.91 313.092 169.023 303.559C168.402 296.883 181.202 265.544 186.001 255.239Z" fill="#868686"/>
<path fill-rule="evenodd" clip-rule="evenodd" d="M189.501 300.224C187.73 303.57 187.097 305.277 187.603 305.345C188.11 305.414 189.65 303.829 192.224 300.591L189.501 300.224Z" fill="black" fill-opacity="0.159856"/>
<path d="M221.703 305.599C222.689 308.727 221.996 312.395 220.629 314.988" stroke="#484848" stroke-linecap="round"/>
<path fill-rule="evenodd" clip-rule="evenodd" d="M86.3633 445.346C94.5922 441.651 104.259 445.326 107.954 453.555C107.968 453.587 107.982 453.618 107.996 453.65L110.859 460.135C102.63 463.83 92.9633 460.155 89.2681 451.926C89.2539 451.894 89.2399 451.863 89.2259 451.831L86.3633 445.346Z" fill="#02D3AF"/>
<path fill-rule="evenodd" clip-rule="evenodd" d="M98.1743 449.302C106.424 455.172 111.773 461.714 114.238 468.926C116.715 476.173 117.73 488.321 117.269 505.347C117.262 505.61 117.468 505.83 117.73 505.837C117.991 505.844 118.209 505.637 118.216 505.373C118.68 488.241 117.657 475.996 115.133 468.614C112.598 461.197 107.122 454.5 98.7202 448.521C98.5066 448.369 98.2111 448.421 98.0604 448.636C97.9096 448.852 97.9606 449.15 98.1743 449.302Z" fill="#02B596"/>
<path fill-rule="evenodd" clip-rule="evenodd" d="M156.489 441.32C148.391 437.511 138.74 440.988 134.932 449.086C134.917 449.118 134.902 449.15 134.887 449.182L131.673 456.133C139.77 459.942 149.422 456.465 153.23 448.367C153.245 448.335 153.26 448.303 153.275 448.271L156.489 441.32Z" fill="#02D3AF"/>
<path fill-rule="evenodd" clip-rule="evenodd" d="M91.4973 425.385C99.3412 423.718 107.052 428.725 108.719 436.569L110.069 442.919C102.225 444.586 94.5143 439.579 92.8471 431.735L91.4973 425.385Z" fill="#02D3AF"/>
<path fill-rule="evenodd" clip-rule="evenodd" d="M97.2658 430.451C103.311 434.672 107.401 439.223 109.546 444.099L109.677 444.406L109.81 444.729C112.008 450.185 115.647 464.475 120.706 487.545C120.763 487.802 121.016 487.966 121.271 487.91C121.526 487.854 121.688 487.599 121.631 487.342L121.004 484.496L120.272 481.202C115.701 460.761 112.42 448.281 110.411 443.715C108.189 438.662 103.983 433.981 97.8034 429.667C97.588 429.517 97.293 429.571 97.1446 429.787C96.9961 430.004 97.0504 430.301 97.2658 430.451Z" fill="#02B596"/>
<path fill-rule="evenodd" clip-rule="evenodd" d="M144.624 420.56C135.98 420.408 128.85 427.291 128.698 435.935L128.698 435.939L128.564 443.653C137.208 443.805 144.338 436.921 144.49 428.278L144.49 428.273L144.624 420.56Z" fill="#02D3AF"/>
<path fill-rule="evenodd" clip-rule="evenodd" d="M138.95 423.662C133.389 431.822 129.326 439.699 126.762 447.293C124.203 454.874 121.65 466.581 119.1 482.424C119.058 482.684 119.233 482.93 119.491 482.972C119.749 483.014 119.992 482.837 120.034 482.577L120.348 480.651L120.563 479.353C122.929 465.186 125.296 454.6 127.659 447.601C130.193 440.095 134.216 432.295 139.731 424.203C139.879 423.985 139.824 423.688 139.609 423.539C139.393 423.389 139.099 423.444 138.95 423.662Z" fill="#02B596"/>
<path fill-rule="evenodd" clip-rule="evenodd" d="M126.905 418.316C123.898 426.881 121.731 437.472 120.402 450.088C119.073 462.705 118.796 475.321 119.571 487.938L121.772 488.138C120.984 473.413 121.063 460.757 122.01 450.172C122.956 439.587 124.954 429.002 128.005 418.416L126.905 418.316Z" fill="#02B596"/>
<path fill-rule="evenodd" clip-rule="evenodd" d="M126.521 422.761C130.412 423.739 134.352 421.352 135.322 417.428C136.292 413.504 133.429 401.531 131.867 401.138C130.305 400.745 122.203 409.961 121.233 413.885C120.263 417.809 122.631 421.783 126.521 422.761Z" fill="#C2FFF4"/>
<path fill-rule="evenodd" clip-rule="evenodd" d="M127.601 419.672C130.307 420.353 133.063 418.632 133.756 415.83C134.449 413.027 131.874 405.774 130.788 405.5C129.701 405.227 124.648 410.562 123.955 413.365C123.262 416.168 124.894 418.992 127.601 419.672Z" fill="#02D3AF"/>
<path fill-rule="evenodd" clip-rule="evenodd" d="M128.725 419.005L132.783 406.341C133.024 405.588 132.615 404.781 131.868 404.537C131.122 404.294 130.321 404.707 130.08 405.46L126.022 418.124C125.781 418.877 126.191 419.684 126.937 419.928C127.683 420.171 128.484 419.758 128.725 419.005Z" fill="url(#paint7_linear_4_363)"/>
<path fill-rule="evenodd" clip-rule="evenodd" d="M104.951 405.586C108.836 413.79 112.099 424.096 114.74 436.504C117.38 448.913 118.974 461.431 119.522 474.06L117.354 474.489C116.598 459.762 115.197 447.184 113.149 436.756C111.101 426.327 108.007 416.009 103.867 405.801L104.951 405.586Z" fill="#02B596"/>
<path fill-rule="evenodd" clip-rule="evenodd" d="M105.797 409.967C102.03 411.346 97.8616 409.383 96.4867 405.582C95.1119 401.781 96.7077 389.575 98.2204 389.02C99.7331 388.466 108.753 396.785 110.128 400.586C111.503 404.387 109.564 408.587 105.797 409.967Z" fill="#C2FFF4"/>
<path fill-rule="evenodd" clip-rule="evenodd" d="M104.4 407.007C101.78 407.967 98.8596 406.544 97.8776 403.829C96.8955 401.114 98.6974 393.632 99.7497 393.246C100.802 392.861 106.385 397.639 107.367 400.354C108.349 403.069 107.021 406.048 104.4 407.007Z" fill="#02D3AF"/>
<path fill-rule="evenodd" clip-rule="evenodd" d="M103.212 406.462L97.853 394.291C97.5344 393.568 97.8573 392.722 98.5743 392.402C99.2912 392.082 100.131 392.409 100.449 393.132L105.809 405.303C106.127 406.026 105.804 406.872 105.087 407.192C104.37 407.512 103.531 407.185 103.212 406.462Z" fill="url(#paint8_linear_4_363)"/>
<path fill-rule="evenodd" clip-rule="evenodd" d="M152.019 443.348C140.792 447.742 132.963 452.819 128.537 458.599C124.11 464.378 121.186 473.341 119.743 485.49C119.712 485.752 119.897 485.99 120.157 486.021C120.417 486.052 120.652 485.866 120.683 485.604C122.107 473.611 124.981 464.803 129.286 459.183C133.59 453.562 141.281 448.575 152.362 444.239C152.606 444.143 152.727 443.866 152.632 443.621C152.537 443.375 152.263 443.253 152.019 443.348Z" fill="#02B596"/>
<path fill-rule="evenodd" clip-rule="evenodd" d="M121.929 478.595C118.375 465.93 109.581 461.451 95.5464 465.157C106.054 468.591 113.987 473.07 119.346 478.595H121.929Z" fill="#80BEB4"/>
<path fill-rule="evenodd" clip-rule="evenodd" d="M121.875 475.677C125.429 463.012 133.129 457.605 144.974 459.457C137.78 465.371 130.941 470.778 124.458 475.677H121.875Z" fill="#80BEB4"/>
<path fill-rule="evenodd" clip-rule="evenodd" d="M121.836 479.453C118.658 468.217 120.775 457.764 128.187 448.092C127.811 461.399 126.335 471.442 123.76 478.222L121.836 479.453Z" fill="#80BEB4"/>
<path fill-rule="evenodd" clip-rule="evenodd" d="M117.173 475.677C115.066 469.587 112.97 461.082 111.399 452.837C119.162 455.959 121.655 468.397 119.162 475.677H117.173Z" fill="#BABABA"/>
<path d="M104.03 469.571H134.682C135.796 469.571 136.698 470.473 136.698 471.587C136.698 471.645 136.696 471.704 136.691 471.762L130.784 539.355C130.693 540.396 129.821 541.195 128.775 541.195H109.937C108.892 541.195 108.02 540.396 107.929 539.355L102.022 471.762C101.925 470.653 102.746 469.675 103.855 469.578C103.913 469.573 103.972 469.571 104.03 469.571Z" fill="#ABABAB"/>
<mask id="mask6_4_363" style="mask-type:luminance" maskUnits="userSpaceOnUse" x="102" y="469" width="35" height="73">
<path d="M104.03 469.571H134.682C135.796 469.571 136.698 470.473 136.698 471.587C136.698 471.645 136.696 471.704 136.691 471.762L130.784 539.355C130.693 540.396 129.821 541.195 128.775 541.195H109.937C108.892 541.195 108.02 540.396 107.929 539.355L102.022 471.762C101.925 470.653 102.746 469.675 103.855 469.578C103.913 469.573 103.972 469.571 104.03 469.571Z" fill="#8175FF"/>
</mask>
<g mask="url(#mask6_4_363)">
<path fill-rule="evenodd" clip-rule="evenodd" d="M97.4092 465.099H110.354C102.332 495.552 126.479 516.488 110.354 546.941H97.4092V465.099Z" fill="#626262"/>
</g>
<path fill-rule="evenodd" clip-rule="evenodd" d="M679.746 451.882L668.303 542.29L674.303 542.21L685.746 452.728L679.746 451.882Z" fill="#CCCCCC"/>
<path fill-rule="evenodd" clip-rule="evenodd" d="M646.447 451.882L635.004 542.29L641.003 542.21L652.446 452.728L646.447 451.882Z" fill="#CCCCCC"/>
<path fill-rule="evenodd" clip-rule="evenodd" d="M719.494 451.882L730.937 542.29L724.938 542.21L713.495 452.728L719.494 451.882Z" fill="#A5A5A5"/>
<path fill-rule="evenodd" clip-rule="evenodd" d="M632.626 456.648C632.626 451.431 636.854 447.203 642.071 447.203H679.833C685.555 447.203 690.337 442.849 690.872 437.153L696.91 372.96C697.446 367.263 702.228 362.91 707.95 362.91H731.65C737.773 362.91 742.738 367.874 742.738 373.998C742.738 374.282 742.727 374.565 742.705 374.848L736.481 455.854C736.037 461.632 731.22 466.093 725.425 466.093H642.071C636.854 466.093 632.626 461.864 632.626 456.648Z" fill="#CCCCCC"/>
<path fill-rule="evenodd" clip-rule="evenodd" d="M731.396 362.91C731.971 362.91 732.536 362.954 733.087 363.038C733.176 363.6 733.221 364.176 733.221 364.762C733.221 365.046 733.21 365.331 733.188 365.614L726.969 446.332C726.524 452.108 721.707 456.568 715.914 456.568H632.783L632.627 456.567C632.626 456.506 632.626 456.445 632.626 456.384C632.626 451.181 636.843 446.963 642.046 446.963H679.696C685.417 446.963 690.198 442.611 690.735 436.916L696.768 372.957C697.305 367.262 702.087 362.91 707.807 362.91H731.396Z" fill="#A5A5A5"/>
<path fill-rule="evenodd" clip-rule="evenodd" d="M644.109 513.415C644.109 513.415 649.355 524.01 645.055 527.349C640.748 530.688 629.371 536.946 629.371 536.946L659.511 535.052L652.811 511.944L644.109 513.415Z" fill="url(#paint9_linear_4_363)"/>
<path fill-rule="evenodd" clip-rule="evenodd" d="M656.525 523.003C655.577 523.455 657.136 527.713 653.799 527.413C650.463 527.115 648.368 522.714 645.908 523C643.447 523.285 641.885 527.717 637.201 530.803C632.517 533.89 625.572 537.572 626.037 540.675C626.503 543.779 637.432 544.61 642.968 543.582C648.505 542.556 651.09 540.33 654.682 540.508C658.274 540.685 660.531 540.245 661.657 537.939C662.783 535.632 657.62 522.48 656.525 523.003Z" fill="#EEDFE8"/>
<path fill-rule="evenodd" clip-rule="evenodd" d="M656.259 537.167L655.952 537.15C651.5 536.774 648.446 539.574 644.209 540.363C639.971 541.153 628.795 541.426 627.01 538.776C626.926 538.65 626.847 538.521 626.774 538.391C626.175 539.129 625.893 539.917 626.037 540.836C626.503 543.789 637.433 544.58 642.97 543.603C648.507 542.626 651.091 540.508 654.684 540.676L655.322 540.7C658.546 540.788 660.602 540.294 661.66 538.232C661.918 537.729 661.86 536.649 661.601 535.283C660.099 536.311 658.202 537.226 656.259 537.167Z" fill="#EC7AA5"/>
<path fill-rule="evenodd" clip-rule="evenodd" d="M689.512 420.032C680.387 420.439 629.602 431.672 620.375 433.58C611.148 435.488 603.347 445.814 610.383 457.772C618.286 471.194 638.675 509.314 643.626 517.907C646.076 522.16 658.437 519.775 655.534 512.636C650.121 499.329 647.607 465.898 633.807 453.709C633.807 453.709 680.217 461.786 700.264 452.534C714.834 445.808 711.537 419.047 689.512 420.032Z" fill="#494949"/>
<path fill-rule="evenodd" clip-rule="evenodd" d="M625.859 363.074C625.859 363.074 625.963 357.65 623.365 353.77C620.768 349.89 620.665 345.768 618.7 345.903C616.734 346.038 618.68 355.618 618.68 355.618C618.68 355.618 616.187 354.665 614.395 353.46C612.604 352.255 607.171 346.314 605.901 347.367C603.749 349.161 607.216 359.279 609.104 361.302C610.999 363.326 620.348 368.98 620.348 368.98L647.883 396.719L652 381.994L625.859 363.074Z" fill="url(#paint10_linear_4_363)"/>
<path fill-rule="evenodd" clip-rule="evenodd" d="M680.933 360.625C676.689 370.47 668.917 388.556 665.713 393.951C661.698 400.708 655.366 403.686 647.953 398.672C646.919 397.973 644.917 396.4 641.947 393.954C642.606 387.532 645.006 382.164 649.142 377.849C651.014 379.398 651.95 380.172 651.95 380.172C651.95 380.172 659.916 359.752 666.324 347.924C671.874 337.69 687.394 345.659 680.933 360.625Z" fill="#EA5455"/>
<path fill-rule="evenodd" clip-rule="evenodd" d="M651.868 380.183C650.442 385.021 649.562 387.3 649.228 387.019C648.895 386.739 649.022 383.828 649.611 378.286L651.868 380.183Z" fill="black" fill-opacity="0.159856"/>
<path fill-rule="evenodd" clip-rule="evenodd" d="M699.278 322.411V331.123L705.675 325.972C705.675 325.972 707.641 317.626 709.241 311.427C710.243 307.539 712.687 294.384 702.851 295C694.793 280.796 671.327 289.587 671.14 306.94C670.915 327.811 671.099 335.937 671.099 335.937C684.368 336.698 691.837 334.78 699.278 322.411Z" fill="#422851"/>
<path fill-rule="evenodd" clip-rule="evenodd" d="M705.813 338.997C705.813 338.997 699.862 337.6 699.656 327.85C699.45 318.099 699.595 314.77 699.595 314.77L686.487 314.534C686.487 314.534 686.344 325.401 686.342 329.332C686.336 338.889 679.308 339.672 679.308 339.672C679.308 339.672 680.509 347.558 692.387 348.226C701.66 348.748 705.813 338.997 705.813 338.997Z" fill="url(#paint11_linear_4_363)"/>
<path fill-rule="evenodd" clip-rule="evenodd" d="M702.65 309.901C708.498 309.675 707.544 318.235 701.469 318.224C701.469 318.224 697.941 330.384 685.692 330.384C675.744 330.384 675.097 316.211 675.007 313.383C674.91 310.369 674.898 300.465 674.898 300.465L702.878 300.452L702.65 309.901Z" fill="url(#paint12_linear_4_363)"/>
<path fill-rule="evenodd" clip-rule="evenodd" d="M703.103 309.845C700.679 310.245 700.973 311.849 700.314 311.709C696.968 310.997 683.424 311.936 681.68 304.488C679.51 309.141 678.98 310.285 674.202 311.534V297.899L704.423 295C704.423 295 703.954 309.704 703.103 309.845Z" fill="#422851"/>
<path d="M688.054 322.215C688.054 322.215 685.136 324.685 681.757 322.372" stroke="#F77B7B" stroke-width="1.5" stroke-linecap="round"/>
<path d="M686.128 325.075C685.22 325.494 684.346 325.525 683.566 325.107" stroke="#F49494" stroke-linecap="round"/>
<path d="M702.054 314.505C701.994 313.132 702.413 312.041 703.813 311.822" stroke="#F77B7B" stroke-linecap="round"/>
<path fill-rule="evenodd" clip-rule="evenodd" d="M704.484 338C697.016 342.574 688.382 344.251 680.345 339.284C667.23 365.145 663.961 396.002 667.116 430.106C686.241 437.678 702.315 436.189 716 427.534L704.484 338Z" fill="#FFE4F4"/>
<path fill-rule="evenodd" clip-rule="evenodd" d="M611.415 513.84C611.415 513.84 611.574 526.311 601.298 530.973C591.028 535.635 583.712 535.355 584.643 538.959C585.574 542.563 612.304 542.418 614.801 539.599C616.928 537.201 621.555 514.872 622.829 516.579L611.415 513.84Z" fill="url(#paint13_linear_4_363)"/>
<path fill-rule="evenodd" clip-rule="evenodd" d="M618.879 531.452C617.304 530.319 615.98 536.853 611.703 535.036C607.425 533.219 610.798 527.213 608.106 526.105C605.414 524.998 600.216 530.953 593.312 532.401C586.408 533.848 580.803 535.114 579.21 537.801C577.838 540.111 579.21 540.849 579.21 540.849C579.21 540.849 585.856 544.168 589.986 544.899C595.986 545.96 613.325 546.667 615.225 544.732C616.392 543.545 619.667 532.019 618.879 531.452Z" fill="#EEDFE8"/>
<path fill-rule="evenodd" clip-rule="evenodd" d="M578.835 538.073C577.534 540.195 579.587 541.3 579.834 541.422L580.824 541.844C582.705 542.625 586.946 544.302 590.081 544.901C595.829 546 613.629 546.651 615.543 544.762C615.88 544.43 616.295 543.217 616.698 541.641L615.476 541.774C609.598 542.397 596.477 543.523 590.002 541.998C584.255 540.644 581.108 538.417 579.674 537.116C579.325 537.416 579.043 537.734 578.835 538.073Z" fill="#EC7AA5"/>
<path fill-rule="evenodd" clip-rule="evenodd" d="M718.102 416.177C726.946 434.853 725.153 447.399 712.725 453.812C694.696 463.115 640.724 452.112 640.724 452.112C640.724 452.112 641.689 459.877 640.724 466.802C638.206 484.889 626.226 515.023 623.691 518.809C620.186 524.046 609.51 520.097 609.308 515.737C609.107 511.377 617.357 455.693 618.612 445.075C619.86 434.456 623.8 432.913 635.309 430.01C637.953 429.343 669.22 421.573 672.084 421.8C688.492 423.097 703.831 421.223 718.102 416.177Z" fill="#3F3F3F"/>
<path fill-rule="evenodd" clip-rule="evenodd" d="M703.56 450.921C685.711 452.921 638.456 448.798 636.558 450.671C634.746 452.46 635.049 483.575 630.984 501.585L631.602 499.884C635.425 489.267 639.394 476.354 640.724 466.802C641.689 459.877 640.724 452.112 640.724 452.112L642.901 452.533C653.16 454.46 696.86 461.999 712.725 453.812C721.322 449.376 724.829 442.006 723.249 431.703C720.527 443.349 713.964 449.755 703.56 450.921Z" fill="white" fill-opacity="0.056108"/>
<path fill-rule="evenodd" clip-rule="evenodd" d="M704.157 338.021C691.789 378.538 684.372 435.979 723 425.986C702.48 388.206 730.376 371.202 724.053 351.676C721.891 345 704.319 337.497 704.157 338.021Z" fill="#EA5455"/>
<path fill-rule="evenodd" clip-rule="evenodd" d="M718.108 354.846C704.128 356.955 715.652 381.363 711.038 385.04C706.423 388.716 698.392 389.113 697.526 391.36C695.785 395.874 704.199 407.271 722.767 425.551L723 425.986C705.125 393.076 723.988 375.931 724.969 359.151C722.898 355.903 720.611 354.468 718.108 354.846Z" fill="black" fill-opacity="0.159856"/>
<path fill-rule="evenodd" clip-rule="evenodd" d="M681 339C676.28 350.838 674.011 360.127 671.894 377.503C670.718 387.151 670.424 401.93 671.013 421.84L665.18 422.987C662.4 392.227 661.475 374.867 662.404 370.907C664.744 360.938 666.329 355.113 669.418 346C671.12 340.998 681 339 681 339Z" fill="#EA5455"/>
<path fill-rule="evenodd" clip-rule="evenodd" d="M701.56 384.018C701.56 384.018 693.944 376.392 691.307 375.507C688.67 374.622 674.223 373.559 674.32 375.559C674.431 377.701 683.728 377.578 684.587 378.632C685.447 379.685 686.642 387.889 689.892 388.697C693.135 389.506 699.857 391.9 699.857 391.9L729.782 407.362L726.594 391.901L701.56 384.018Z" fill="url(#paint14_linear_4_363)"/>
<path fill-rule="evenodd" clip-rule="evenodd" d="M724.481 351.732C733.558 364.542 741.308 384.056 744.282 391.664C747.257 399.272 744.256 410.747 731.176 408.494C730.137 408.316 728.774 407.898 727.085 407.24C722.275 400.647 721.432 394.987 723.227 389.947C724.354 390.423 724.918 390.661 724.918 390.661C724.918 390.661 711.918 367.617 708.743 361.439C703.44 351.123 716.485 340.444 724.481 351.732Z" fill="#EA5455"/>
<path fill-rule="evenodd" clip-rule="evenodd" d="M724.918 390.661C729.321 392.812 731.245 393.414 730.691 392.468C730.138 391.522 727.375 389.427 722.403 386.182L724.918 390.661Z" fill="black" fill-opacity="0.159856"/>
<path fill-rule="evenodd" clip-rule="evenodd" d="M588.762 345.058L612.232 339.206C613.552 338.877 614.889 339.68 615.218 341.001L623.74 375.181C624.07 376.501 623.266 377.839 621.946 378.168L598.476 384.019C597.156 384.349 595.819 383.545 595.489 382.225L586.967 348.045C586.638 346.724 587.442 345.387 588.762 345.058Z" fill="url(#paint15_linear_4_363)"/>
<path fill-rule="evenodd" clip-rule="evenodd" d="M589.678 345.608L613.147 339.757C614.467 339.428 615.805 340.231 616.134 341.552L624.656 375.732C624.985 377.052 624.182 378.389 622.861 378.719L599.392 384.57C598.071 384.899 596.734 384.096 596.405 382.775L587.883 348.595C587.554 347.275 588.357 345.938 589.678 345.608Z" fill="#00A2E9"/>
<path d="M590.499 346.208L612.571 340.705C613.759 340.408 614.963 341.132 615.259 342.32L622.964 373.223C623.26 374.411 622.537 375.615 621.349 375.911L599.277 381.414C598.089 381.71 596.885 380.987 596.589 379.799L588.884 348.896C588.587 347.708 589.311 346.504 590.499 346.208Z" fill="white"/>
<path fill-rule="evenodd" clip-rule="evenodd" d="M384.204 397.871H395.621V542.751H384.204V397.871Z" fill="#E9E9E9"/>
<path fill-rule="evenodd" clip-rule="evenodd" d="M272.375 402.634H362.564V429.542H287.403V542.751H272.375V402.634Z" fill="#D3D3D3"/>
<path fill-rule="evenodd" clip-rule="evenodd" d="M271.792 402.634H279.792V542.751H271.792V402.634Z" fill="#DBDBDB"/>
<path fill-rule="evenodd" clip-rule="evenodd" d="M664.43 402.634H680.43V542.751H664.43V402.634Z" fill="#E9E9E9"/>
<path fill-rule="evenodd" clip-rule="evenodd" d="M664.43 397.871H674.43V542.751H664.43V397.871Z" fill="#DBDBDB"/>
<path fill-rule="evenodd" clip-rule="evenodd" d="M532.006 402.634H671.006V429.19H550.714V542.751H532.006V402.634Z" fill="#D3D3D3"/>
<path fill-rule="evenodd" clip-rule="evenodd" d="M283.59 397.871L532.479 397.871V438.101H283.59V397.871Z" fill="#DBDBDB"/>
<path fill-rule="evenodd" clip-rule="evenodd" d="M526.771 402.634H538.188V438.101H526.771V402.634Z" fill="#E9E9E9"/>
<path fill-rule="evenodd" clip-rule="evenodd" d="M532.042 402.634H541.042V542.751H532.042V402.634Z" fill="#DBDBDB"/>
<path fill-rule="evenodd" clip-rule="evenodd" d="M540.619 397.871H685.745C689.69 397.871 692.889 401.07 692.889 405.015C692.889 408.96 689.69 412.158 685.745 412.158H540.619C536.674 412.158 533.476 408.96 533.476 405.015C533.476 401.07 536.674 397.871 540.619 397.871Z" fill="#E9E9E9"/>
<path fill-rule="evenodd" clip-rule="evenodd" d="M280.736 400.729H529.625V415.016H280.736V400.729Z" fill="#E9E9E9"/>
<path fill-rule="evenodd" clip-rule="evenodd" d="M266.948 397.871H543.413C547.358 397.871 550.556 401.07 550.556 405.015C550.556 408.96 547.358 412.158 543.413 412.158H266.948C263.003 412.158 259.805 408.96 259.805 405.015C259.805 401.07 263.003 397.871 266.948 397.871Z" fill="#DBDBDB"/>
<path fill-rule="evenodd" clip-rule="evenodd" d="M304.388 507.181L296.49 532.824L313.057 533.425C313.057 533.425 311.186 524.653 313.858 516.431C316 509.829 317.748 506.535 317.748 506.535L304.388 507.181Z" fill="#92691F"/>
<path fill-rule="evenodd" clip-rule="evenodd" d="M312.623 526.378C316.839 530.285 320.974 532.962 325.027 534.409C331.108 536.581 333.436 536.605 333.87 537.421L333.948 537.577C335.199 540.159 334.441 543.589 320.58 543.779C317.21 543.825 313.708 541.868 304.409 539.797L303.738 543.417C298.534 543.348 295.497 542.528 294.628 540.956C293.319 538.605 295.545 527.011 297.08 526.791C298.616 526.571 298.919 531.287 303.042 531.39C307.171 531.493 312.623 526.378 312.623 526.378Z" fill="#391B0B"/>
<path fill-rule="evenodd" clip-rule="evenodd" d="M312.623 526.378C316.722 530.176 320.743 532.812 324.688 534.285C323.572 535.344 322.032 535.649 320.067 535.201C317.666 534.653 314.591 532.086 310.843 527.502L311.027 527.724C312.005 526.958 312.623 526.378 312.623 526.378Z" fill="#81411E"/>
<path fill-rule="evenodd" clip-rule="evenodd" d="M266.631 426.913C310.493 430.42 335.445 432.268 341.489 432.455C350.554 432.735 357.48 445.674 350.46 457.617C342.576 471.024 321.155 509.621 316.967 518.546C313.425 526.09 297.327 522.999 300.224 511.473C303.682 497.68 310.128 466.733 323.897 454.558C323.897 454.558 290.41 466.699 271.548 454.924C264.374 450.446 262.735 441.109 266.631 426.913Z" fill="#7A3636"/>
<path fill-rule="evenodd" clip-rule="evenodd" d="M350.46 457.617L349.435 459.376C345.444 466.272 339.001 477.923 332.85 489.27L333.174 488.231C337.931 473.092 345.322 455.259 348.482 449.817C349.59 447.91 351.098 445.966 353.007 443.986C353.816 448.14 353.201 452.954 350.46 457.617Z" fill="white" fill-opacity="0.192499"/>
<path fill-rule="evenodd" clip-rule="evenodd" d="M375.986 507.48C375.986 507.48 380.385 527.038 386.11 529.131C388.314 529.937 369.218 532.238 369.218 532.238L364.424 513.474L375.986 507.48Z" fill="#92691F"/>
<path fill-rule="evenodd" clip-rule="evenodd" d="M366.46 525.631L366.141 542.142L372.723 542.192L372.79 538.48C372.79 538.48 377.92 541.556 381.394 542.638C386.066 544.097 404.525 543.333 406.61 541.11C408.696 538.877 408.741 535.324 404.459 534.887C400.178 534.451 393.098 533.151 390.05 530.818C386.363 528.007 384.96 523.547 383.889 523.543C382.249 523.537 382.123 528.784 373.803 528.858C370.637 528.886 366.46 525.631 366.46 525.631Z" fill="#391B0B"/>
<path fill-rule="evenodd" clip-rule="evenodd" d="M382.186 525.015C382.186 525.015 386.431 531.639 388.955 532.598C391.478 533.548 393.512 532.482 393.512 532.482C393.512 532.482 389.161 530.748 387.48 527.722C383.672 520.867 382.911 524.355 382.186 525.015Z" fill="#81411E"/>
<path fill-rule="evenodd" clip-rule="evenodd" d="M272.074 432.228C272.013 446.241 276.69 455.01 286.106 458.532C300.23 463.815 346.22 461.827 346.22 461.827C346.22 461.827 360.814 515.526 364.311 520.756C367.808 525.986 384.39 526.527 383.493 514.481C382.59 502.435 376.119 457.713 374.867 447.107C373.622 436.5 369.69 433.961 358.208 432.06C354.172 431.392 355.885 430.322 329.941 429.107C324.369 428.846 315.02 430.932 306.428 431.877C300.701 432.507 289.249 432.624 272.074 432.228Z" fill="#7A3636"/>
<path fill-rule="evenodd" clip-rule="evenodd" d="M317.977 432.682V430.241L319.127 430.068C323.31 429.447 327.112 428.975 329.941 429.107L332.924 429.252C355.757 430.407 354.333 431.419 358.208 432.06L358.954 432.186C369.617 434.034 373.475 436.614 374.781 446.419L375.146 449.37C376.875 462.962 382.644 503.158 383.493 514.481C383.561 515.387 383.529 516.222 383.412 516.99L380.05 500.063C375.097 474.966 372.321 460.096 371.722 455.452L371.598 454.487C370.479 446.244 367.55 436.016 358.102 436.683L357.285 436.752C350.633 437.258 338.017 435.982 319.437 432.924L317.977 432.682Z" fill="white" fill-opacity="0.192499"/>
<path d="M383.832 455.357C385.864 455.826 388.177 453.321 388.999 449.761C389.821 446.202 388.84 442.937 386.808 442.468C384.776 441.999 382.463 444.504 381.641 448.063C380.82 451.622 381.8 454.887 383.832 455.357Z" fill="white" fill-opacity="0.192499"/>
<path fill-rule="evenodd" clip-rule="evenodd" d="M282.263 404.315C282.263 404.315 297.654 407.878 297.498 409.277C297.345 410.683 290.569 410.898 290.569 410.898C290.569 410.898 303.095 418.987 302.097 420.565C301.101 422.143 292.934 423.921 289.544 422.648C286.154 421.375 277.367 412.113 277.367 412.113L282.263 404.315Z" fill="url(#paint16_linear_4_363)"/>
<path fill-rule="evenodd" clip-rule="evenodd" d="M282.402 358.716C277.247 365.079 259.669 384.513 259.669 384.513C259.669 384.513 277.247 397.033 281.673 399.681C288.932 404.022 281.551 415.537 276.228 414.258C269.014 412.52 250.806 399.959 242.251 394.876C233.695 389.792 236.969 381.585 243.299 374.095C248.161 368.343 258.732 356.557 266.169 346.211C273.569 335.917 292.406 346.37 282.402 358.716Z" fill="#EA5455"/>
<path fill-rule="evenodd" clip-rule="evenodd" d="M259.669 384.513C256.37 387.692 254.892 389.404 255.235 389.65C255.578 389.896 257.737 388.673 261.713 385.979L259.669 384.513Z" fill="black" fill-opacity="0.159856"/>
<path fill-rule="evenodd" clip-rule="evenodd" d="M313.094 312.007C317.417 312.48 317.111 320.089 311.849 320.486C310.773 327.821 306.937 331.315 302.261 331.719L302.52 342.813L281.835 342.801C281.835 342.801 287.66 334.964 287.369 324.235C287.079 313.506 287.564 303.427 287.564 303.427L314.357 303.908L313.094 312.007Z" fill="url(#paint17_linear_4_363)"/>
<path fill-rule="evenodd" clip-rule="evenodd" d="M304.633 291.313C320.569 295.336 313.995 312.328 313.995 312.328C309.179 311.671 304.546 317.514 302.788 323.244C297.707 328.467 291.126 328.458 286.75 325.416C282.736 313.001 281.386 304.726 282.699 300.592C284.668 294.391 290.107 287.647 304.633 291.313Z" fill="#2C272E"/>
<path fill-rule="evenodd" clip-rule="evenodd" d="M266.957 345.288C265.527 347.724 264.502 357.536 266.957 396.408C268.229 416.537 262.82 436.376 264.218 445.109C265.15 450.932 268.818 454.19 275.223 454.886L280.827 436.657L283.462 454.886C309.951 452.409 324.357 448.156 326.678 442.125C330.167 433.06 325.786 411.75 324.743 391.683C323.697 371.537 324.482 350.858 322.557 347.724C318.714 341.468 308.821 338.546 302.682 337.61C294.891 336.423 284.834 336.377 278.854 338.273C272.875 340.168 268.388 342.852 266.957 345.288Z" fill="#EA5455"/>
<path fill-rule="evenodd" clip-rule="evenodd" d="M307.387 359.131C310.522 382.265 314.715 398.498 319.966 407.83C322.137 411.688 324.342 413.279 326.582 412.602L326.049 407.475C325.519 402.287 325.017 396.942 324.743 391.683C324.553 388.016 324.423 384.331 324.327 380.737L307.387 359.131Z" fill="black" fill-opacity="0.159856"/>
<path fill-rule="evenodd" clip-rule="evenodd" d="M278.854 338.273C278.492 338.388 278.141 338.507 277.802 338.631C286.387 342.374 300.562 341.874 308.268 338.825C306.26 338.258 304.335 337.862 302.682 337.61C294.891 336.423 284.834 336.377 278.854 338.273Z" fill="#E5AA41"/>
<path fill-rule="evenodd" clip-rule="evenodd" d="M384.154 379.168C384.154 379.168 396.939 370.633 399.198 368.919C401.451 367.212 404.277 354.268 402.525 352.452C401.679 351.573 395.283 357.486 394.142 358.278C393.009 359.062 387.209 362.556 387.209 362.556C387.209 362.556 388.85 352.648 387.437 351.849C386.392 351.268 384.302 353.818 384.022 356.513C383.742 359.207 380.835 362.723 380.46 366.812C380.29 368.599 378.531 372.013 378.531 372.013L384.154 379.168Z" fill="url(#paint18_linear_4_363)"/>
<path fill-rule="evenodd" clip-rule="evenodd" d="M308.014 362.801C312.913 372.98 321.234 387.863 325.803 396.589C331.211 406.915 337.655 411.29 350.652 403.628C361.537 397.211 377.233 386.89 385.343 381.281C392.89 376.061 383.969 363.175 376.84 367.529C367.381 373.297 343.194 384.728 343.194 384.728C343.194 384.728 330.747 361.991 325.579 351.075C319.004 337.201 298.534 343.101 308.014 362.801Z" fill="#EA5455"/>
<path fill-rule="evenodd" clip-rule="evenodd" d="M343.194 384.728C344.711 390.072 345.649 392.639 346.007 392.427C346.365 392.216 346.239 389.267 345.63 383.579L343.194 384.728Z" fill="black" fill-opacity="0.159856"/>
<path fill-rule="evenodd" clip-rule="evenodd" d="M292.767 463.221L281.325 544.18L287.324 544.1L298.767 464.067L292.767 463.221Z" fill="#A5A5A5"/>
<path fill-rule="evenodd" clip-rule="evenodd" d="M330.93 463.221L342.373 544.18L336.373 544.1L324.93 464.067L330.93 463.221Z" fill="#CCCCCC"/>
<path fill-rule="evenodd" clip-rule="evenodd" d="M257.883 463.221L246.44 544.18L252.439 544.1L263.882 464.067L257.883 463.221Z" fill="#A5A5A5"/>
<path fill-rule="evenodd" clip-rule="evenodd" d="M344.751 458.538C344.751 453.321 340.523 449.093 335.306 449.093H297.544C291.822 449.093 287.04 444.739 286.504 439.043L280.467 374.85C279.931 369.153 275.149 364.8 269.427 364.8H245.727C239.603 364.8 234.639 369.764 234.639 375.888C234.639 376.172 234.65 376.455 234.672 376.738L240.896 457.744C241.34 463.522 246.157 467.983 251.952 467.983H335.306C340.523 467.983 344.751 463.754 344.751 458.538Z" fill="#A5A5A5"/>
<path fill-rule="evenodd" clip-rule="evenodd" d="M275.248 366.364L281.555 448.222C282 453.998 286.817 458.458 292.61 458.458H344.593L344.75 458.456C344.751 458.395 344.751 458.335 344.751 458.274C344.751 453.071 340.534 448.853 335.331 448.853H297.681C291.96 448.853 287.179 444.501 286.642 438.806L280.609 374.847C280.266 371.21 278.192 368.121 275.248 366.364Z" fill="#CCCCCC"/>
<path fill-rule="evenodd" clip-rule="evenodd" d="M558.235 395.796H474.098C473.686 395.796 473.352 396.13 473.352 396.543V397.639C473.352 398.052 473.686 398.386 474.098 398.386H558.235C558.647 398.386 558.981 398.052 558.981 397.639V396.543C558.981 396.13 558.647 395.796 558.235 395.796Z" fill="url(#paint19_linear_4_363)"/>
<path fill-rule="evenodd" clip-rule="evenodd" d="M558.243 395.796H525.916C525.503 395.796 525.169 396.13 525.169 396.543V397.639C525.169 398.052 525.503 398.386 525.916 398.386H558.243C558.655 398.386 558.989 398.052 558.989 397.639V396.543C558.989 396.13 558.655 395.796 558.243 395.796Z" fill="#B5B5B5"/>
<path fill-rule="evenodd" clip-rule="evenodd" d="M561.522 356.296H505.711C503.899 356.296 502.37 357.642 502.14 359.439L497.989 391.852C497.736 393.824 499.13 395.627 501.102 395.88C501.254 395.899 501.407 395.909 501.56 395.909H557.371C559.182 395.909 560.712 394.563 560.942 392.766L565.093 360.353C565.345 358.381 563.951 356.578 561.979 356.325C561.827 356.306 561.675 356.296 561.522 356.296Z" fill="#B5B5B5"/>
<path fill-rule="evenodd" clip-rule="evenodd" d="M559.823 356.296H505.191C503.38 356.296 501.851 357.642 501.621 359.439L497.47 391.852C497.217 393.824 498.611 395.627 500.583 395.88C500.735 395.899 500.888 395.909 501.04 395.909H555.672C557.483 395.909 559.013 394.563 559.243 392.766L563.394 360.353C563.646 358.381 562.252 356.578 560.28 356.325C560.129 356.306 559.976 356.296 559.823 356.296Z" fill="url(#paint20_linear_4_363)"/>
<path d="M558.231 358.17H506.473C504.842 358.17 503.466 359.381 503.259 360.999L499.519 390.236C499.292 392.011 500.546 393.634 502.321 393.861C502.458 393.878 502.595 393.887 502.732 393.887H554.491C556.121 393.887 557.498 392.675 557.705 391.058L561.445 361.821C561.672 360.046 560.417 358.423 558.642 358.196C558.506 358.178 558.369 358.17 558.231 358.17Z" fill="white"/>
<path fill-rule="evenodd" clip-rule="evenodd" d="M424.644 406.22C424.644 406.22 438.245 409.393 438.107 410.638C437.972 411.89 431.984 412.082 431.984 412.082C431.984 412.082 443.054 419.285 442.172 420.69C441.291 422.095 434.074 423.678 431.079 422.545C428.083 421.411 420.317 413.163 420.317 413.163L398.53 401.463L405.813 391.858L424.644 406.22Z" fill="url(#paint21_linear_4_363)"/>
<path fill-rule="evenodd" clip-rule="evenodd" d="M424.767 365.617C420.212 371.282 404.678 388.587 404.678 388.587C404.678 388.587 405.7 389.354 407.744 390.888L397.772 402.985C393.526 400.384 390.698 398.66 389.285 397.815C381.725 393.288 384.617 385.98 390.211 379.311C394.508 374.189 403.849 363.695 410.422 354.482C416.961 345.316 433.608 354.623 424.767 365.617Z" fill="#FFB66F"/>
<path fill-rule="evenodd" clip-rule="evenodd" d="M404.678 388.587C401.762 391.418 400.456 392.943 400.759 393.162C401.062 393.381 402.971 392.291 406.484 389.893L404.678 388.587Z" fill="black" fill-opacity="0.159856"/>
<path fill-rule="evenodd" clip-rule="evenodd" d="M407.127 389.623L394.129 402.491L400.628 406.744L409.556 391.459L407.127 389.623Z" fill="#FFEDC2"/>
<path fill-rule="evenodd" clip-rule="evenodd" d="M448.634 505.233L441.604 527.882L453.422 528.413C453.422 528.413 451.756 520.665 454.134 513.403C456.041 507.572 457.597 504.663 457.597 504.663L448.634 505.233Z" fill="url(#paint22_linear_4_363)"/>
<path fill-rule="evenodd" clip-rule="evenodd" d="M453.518 521.78C453.518 521.78 453.271 527.546 455.285 529.369C457.298 531.19 467.978 537.917 468.873 539.272C469.768 540.628 468.455 542.283 468.455 542.283C468.455 542.283 457.551 543.993 452.407 541.354C448.694 539.448 446.04 537.891 446.04 537.891L444.901 540.82L438.947 539.965C438.947 539.965 437.112 535.316 437.9 533.004C438.689 530.692 442.758 519.889 442.758 519.889C442.758 519.889 446.344 520.519 453.518 521.78Z" fill="#391B0B"/>
<path fill-rule="evenodd" clip-rule="evenodd" d="M414.248 428.031C423.137 428.898 466.921 439.326 475.936 441.178C484.951 443.03 492.573 453.051 485.698 464.654C480.551 473.338 470.701 491.172 456.15 518.158C456.015 518.191 455.883 518.249 455.747 518.249C451.307 518.249 447.349 517.641 443.538 514.985C447.398 486.688 453.823 468.597 462.812 460.712C462.812 460.712 427.994 473.231 410.582 459.571C400.31 451.513 404.452 427.075 414.248 428.031Z" fill="#33373E"/>
<path fill-rule="evenodd" clip-rule="evenodd" d="M485.698 464.654C484.303 467.009 482.508 470.146 480.476 473.756L482.81 444.442C488.055 448.685 490.674 456.255 485.698 464.654Z" fill="white" fill-opacity="0.192499"/>
<path fill-rule="evenodd" clip-rule="evenodd" d="M514.095 503.444C514.095 503.444 517.972 520.714 523.017 522.562C524.96 523.273 511.032 525.305 511.032 525.305L506.806 508.737L514.095 503.444Z" fill="url(#paint23_linear_4_363)"/>
<path fill-rule="evenodd" clip-rule="evenodd" d="M509.256 520.544L512.935 542.165L519.311 541.157L518.523 535.811C518.523 535.811 521.32 540.468 524.439 540.267C527.567 540.065 543.209 537.707 543.209 537.707C543.209 537.707 543.561 532.529 536.365 531.346C530.381 530.363 520.176 518.809 520.176 518.809L509.256 520.544Z" fill="#391B0B"/>
<path fill-rule="evenodd" clip-rule="evenodd" d="M421.705 425.171C413.151 443.29 414.884 455.46 426.906 461.682C444.345 470.707 490.749 459.063 490.749 459.063C490.749 459.063 489.816 466.596 490.749 473.314C493.185 490.861 505.168 512.449 506.258 516.007C506.806 517.798 520.17 515.151 520.17 513.026C520.17 510.901 513.352 462.537 512.138 452.236C510.931 441.934 507.12 440.438 495.987 437.622C493.43 436.975 460.283 429.436 457.513 429.656C441.642 430.915 429.706 429.42 421.705 425.171Z" fill="#42474F"/>
<path fill-rule="evenodd" clip-rule="evenodd" d="M457.513 429.656C460.283 429.436 493.43 436.975 495.987 437.621L497.815 438.091C507.31 440.575 510.83 442.428 512.052 451.547L512.381 454.165C513.383 461.804 516.091 479.769 518.234 494.725C515.816 489.228 513.815 483.129 512.231 476.427C508.539 460.807 509.329 447.982 508.338 445.736C507.346 443.49 458.859 436.32 450.527 434.84C446.9 434.196 444.855 432.599 444.39 430.048C448.416 430.161 452.79 430.031 457.513 429.656Z" fill="white" fill-opacity="0.192499"/>
<path fill-rule="evenodd" clip-rule="evenodd" d="M451.203 320.877C455.055 321.299 454.782 328.08 450.092 328.434C449.134 334.97 445.716 338.084 441.549 338.444L441.78 348.331L423.348 348.32C423.348 348.32 428.538 341.336 428.28 331.775C428.021 322.213 428.453 313.231 428.453 313.231L452.327 313.66L451.203 320.877Z" fill="url(#paint24_linear_4_363)"/>
<path fill-rule="evenodd" clip-rule="evenodd" d="M452.041 321.385C447.554 319.609 444.24 327.257 440.808 332.573C437.375 337.888 428.481 336.985 427.255 332.573C422.614 322.908 418.615 309.769 424.031 308.691C424.793 294.723 461.307 298.021 452.041 321.385Z" fill="#9E5229"/>
<path fill-rule="evenodd" clip-rule="evenodd" d="M426.712 303.405C425.149 304.735 424.15 306.501 424.031 308.691C418.615 309.769 422.614 322.908 427.255 332.573C428.395 336.676 436.164 337.744 440.008 333.601C443.516 323.086 442.018 311.328 434.93 303.406L426.712 303.405Z" fill="black" fill-opacity="0.199355"/>
<path d="M431.868 307.812C429.437 307.812 427.467 305.84 427.467 303.406C427.467 300.973 429.437 299 431.868 299C434.298 299 436.268 300.973 436.268 303.406C436.268 305.84 434.298 307.812 431.868 307.812Z" fill="#FB9934"/>
<path fill-rule="evenodd" clip-rule="evenodd" d="M455.709 350.001C459.79 355.987 466.59 376.303 466.976 380.873C467.411 386.145 461.751 394.544 461.658 402.176C461.575 409.809 465.879 428.915 464.586 431.062C463.303 433.209 420.69 445.621 418.289 444.601C415.889 443.581 407.601 432.581 409.495 428.11C411.399 423.64 419.265 413.499 418.365 407.408C417.475 401.318 412.307 378.836 409.741 371.184C407.185 363.532 408.038 355.498 412.808 352.206C415.168 350.577 421.466 345.948 432.682 345.969C443.898 345.991 455.393 349.537 455.709 350.001Z" fill="#FF9F43"/>
<path fill-rule="evenodd" clip-rule="evenodd" d="M464.857 375.966L445.302 361.916L445.308 364.483C445.38 380.33 446.378 388.725 462.975 414.695L462.591 412.048C462.05 408.206 461.631 404.608 461.658 402.176C461.716 397.361 463.991 392.241 465.553 387.793L464.857 375.966Z" fill="black" fill-opacity="0.159856"/>
<path fill-rule="evenodd" clip-rule="evenodd" d="M443.045 345.532C443.359 347.248 442.828 348.106 441.45 348.106C439.384 348.106 425.524 348.562 423.647 347.748C422.396 347.205 421.958 346.466 422.333 345.532H443.045Z" fill="#FFF6E1"/>
<path fill-rule="evenodd" clip-rule="evenodd" d="M512.124 380.86C512.124 380.86 523.411 373.328 525.405 371.815C527.394 370.309 529.889 358.885 528.342 357.282C527.595 356.507 521.949 361.725 520.942 362.424C519.941 363.116 514.821 366.2 514.821 366.2C514.821 366.2 516.27 357.456 515.022 356.75C514.1 356.238 512.254 358.488 512.007 360.866C511.761 363.244 509.194 366.347 508.863 369.956C508.713 371.533 508.129 373.576 508.129 373.576L476.814 387.025L480.09 401.648L512.124 380.86Z" fill="url(#paint25_linear_4_363)"/>
<path fill-rule="evenodd" clip-rule="evenodd" d="M444.907 366.415C449.231 375.4 456.577 388.534 460.611 396.235C465.385 405.349 471.074 409.21 482.548 402.447C483.444 401.92 484.859 401.068 486.796 399.892L479.692 384.12C477.207 385.218 475.964 385.767 475.964 385.767C475.964 385.767 464.975 365.701 460.413 356.067C454.609 343.822 436.537 349.029 444.907 366.415Z" fill="#FFB66F"/>
<path fill-rule="evenodd" clip-rule="evenodd" d="M475.964 385.768C477.303 390.484 478.131 392.749 478.447 392.563C478.763 392.376 478.652 389.773 478.114 384.753L475.964 385.768Z" fill="black" fill-opacity="0.159856"/>
<path fill-rule="evenodd" clip-rule="evenodd" d="M479.592 383.423L484.539 403.058L491.901 399.077L482.241 381.894L479.592 383.423Z" fill="#FFEDC2"/>
<path fill-rule="evenodd" clip-rule="evenodd" d="M432.339 300.15C432.339 300.15 428.191 294.84 423.4 296.233C418.61 297.626 414.277 306.165 416.334 314.191C418.381 322.219 416.693 326.797 414.21 332.207C407.538 346.76 430.636 356 430.636 356C429.435 348.811 430.002 343.046 432.339 338.705C435.95 331.999 438 323.399 438 318.137C438 308.986 432.339 300.15 432.339 300.15Z" fill="#9E5229"/>
<path fill-rule="evenodd" clip-rule="evenodd" d="M431.658 463.221L443.1 544.18L437.101 544.1L425.658 464.067L431.658 463.221Z" fill="#CCCCCC"/>
<path fill-rule="evenodd" clip-rule="evenodd" d="M464.957 463.221L476.4 544.18L470.4 544.1L458.957 464.067L464.957 463.221Z" fill="#CCCCCC"/>
<path fill-rule="evenodd" clip-rule="evenodd" d="M391.91 463.221L380.467 544.18L386.466 544.1L397.909 464.067L391.91 463.221Z" fill="#A5A5A5"/>
<path fill-rule="evenodd" clip-rule="evenodd" d="M478.778 458.538C478.778 453.321 474.549 449.093 469.333 449.093H431.57C425.849 449.093 421.067 444.739 420.531 439.043L414.493 374.85C413.958 369.153 409.176 364.8 403.454 364.8H379.754C373.63 364.8 368.666 369.764 368.666 375.888C368.666 376.172 368.677 376.455 368.698 376.738L374.923 457.744C375.367 463.522 380.184 467.983 385.978 467.983H469.333C474.549 467.983 478.778 463.754 478.778 458.538Z" fill="#A5A5A5"/>
<path fill-rule="evenodd" clip-rule="evenodd" d="M409.275 366.364L415.582 448.222C416.027 453.998 420.844 458.458 426.637 458.458H478.62L478.776 458.456C478.777 458.395 478.778 458.335 478.778 458.274C478.778 453.071 474.56 448.853 469.357 448.853H431.707C425.987 448.853 421.206 444.501 420.668 438.806L414.635 374.847C414.292 371.21 412.219 368.121 409.275 366.364Z" fill="#CCCCCC"/>
<defs>
<filter id="filter0_dd_4_363" x="70.8556" y="85.0082" width="191.801" height="107.428" filterUnits="userSpaceOnUse" color-interpolation-filters="sRGB">
<feFlood flood-opacity="0" result="BackgroundImageFix"/>
<feColorMatrix in="SourceAlpha" type="matrix" values="0 0 0 0 0 0 0 0 0 0 0 0 0 0 0 0 0 0 127 0" result="hardAlpha"/>
<feOffset dx="8" dy="9"/>
<feGaussianBlur stdDeviation="14"/>
<feColorMatrix type="matrix" values="0 0 0 0 0.0755213 0 0 0 0 0.582569 0 0 0 0 0.878793 0 0 0 0.229458 0"/>
<feBlend mode="normal" in2="BackgroundImageFix" result="effect1_dropShadow_4_363"/>
<feColorMatrix in="SourceAlpha" type="matrix" values="0 0 0 0 0 0 0 0 0 0 0 0 0 0 0 0 0 0 127 0" result="hardAlpha"/>
<feOffset dy="2"/>
<feGaussianBlur stdDeviation="7.5"/>
<feColorMatrix type="matrix" values="0 0 0 0 0.503982 0 0 0 0 0.700178 0 0 0 0 1 0 0 0 0.233829 0"/>
<feBlend mode="normal" in2="effect1_dropShadow_4_363" result="effect2_dropShadow_4_363"/>
<feBlend mode="normal" in="SourceGraphic" in2="effect2_dropShadow_4_363" result="shape"/>
</filter>
<filter id="filter1_dd_4_363" x="70.8556" y="143.592" width="224.949" height="198.68" filterUnits="userSpaceOnUse" color-interpolation-filters="sRGB">
<feFlood flood-opacity="0" result="BackgroundImageFix"/>
<feColorMatrix in="SourceAlpha" type="matrix" values="0 0 0 0 0 0 0 0 0 0 0 0 0 0 0 0 0 0 127 0" result="hardAlpha"/>
<feOffset dx="8" dy="9"/>
<feGaussianBlur stdDeviation="14"/>
<feColorMatrix type="matrix" values="0 0 0 0 0.0755213 0 0 0 0 0.582569 0 0 0 0 0.878793 0 0 0 0.229458 0"/>
<feBlend mode="normal" in2="BackgroundImageFix" result="effect1_dropShadow_4_363"/>
<feColorMatrix in="SourceAlpha" type="matrix" values="0 0 0 0 0 0 0 0 0 0 0 0 0 0 0 0 0 0 127 0" result="hardAlpha"/>
<feOffset dy="2"/>
<feGaussianBlur stdDeviation="7.5"/>
<feColorMatrix type="matrix" values="0 0 0 0 0.503982 0 0 0 0 0.700178 0 0 0 0 1 0 0 0 0.233829 0"/>
<feBlend mode="normal" in2="effect1_dropShadow_4_363" result="effect2_dropShadow_4_363"/>
<feBlend mode="normal" in="SourceGraphic" in2="effect2_dropShadow_4_363" result="shape"/>
</filter>
<filter id="filter2_d_4_363" x="276.233" y="107.237" width="272.181" height="197.485" filterUnits="userSpaceOnUse" color-interpolation-filters="sRGB">
<feFlood flood-opacity="0" result="BackgroundImageFix"/>
<feColorMatrix in="SourceAlpha" type="matrix" values="0 0 0 0 0 0 0 0 0 0 0 0 0 0 0 0 0 0 127 0" result="hardAlpha"/>
<feOffset dx="6" dy="6"/>
<feGaussianBlur stdDeviation="8"/>
<feColorMatrix type="matrix" values="0 0 0 0 0.70188 0 0 0 0 0.70188 0 0 0 0 0.70188 0 0 0 0.208725 0"/>
<feBlend mode="normal" in2="BackgroundImageFix" result="effect1_dropShadow_4_363"/>
<feBlend mode="normal" in="SourceGraphic" in2="effect1_dropShadow_4_363" result="shape"/>
</filter>
<linearGradient id="paint0_linear_4_363" x1="-661.558" y1="-629.06" x2="-1370.12" y2="4370.57" gradientUnits="userSpaceOnUse">
<stop stop-color="#FFAFAF"/>
<stop offset="1" stop-color="#F07777"/>
</linearGradient>
<linearGradient id="paint1_linear_4_363" x1="-454.566" y1="119.549" x2="-1120.14" y2="3031.01" gradientUnits="userSpaceOnUse">
<stop stop-color="#FDC6C6"/>
<stop offset="1" stop-color="#FAB2B2"/>
</linearGradient>
<linearGradient id="paint2_linear_4_363" x1="-769.93" y1="417.141" x2="-929.478" y2="2471.54" gradientUnits="userSpaceOnUse">
<stop stop-color="#FDC6C6"/>
<stop offset="1" stop-color="#FAB2B2"/>
</linearGradient>
<linearGradient id="paint3_linear_4_363" x1="-2332.18" y1="10264.3" x2="-7140.86" y2="1284.62" gradientUnits="userSpaceOnUse">
<stop stop-color="#28324F"/>
<stop offset="1" stop-color="#222735"/>
</linearGradient>
<linearGradient id="paint4_linear_4_363" x1="-445.747" y1="-328.377" x2="-603.799" y2="2533.85" gradientUnits="userSpaceOnUse">
<stop stop-color="#FDC6C6"/>
<stop offset="1" stop-color="#FAB2B2"/>
</linearGradient>
<linearGradient id="paint5_linear_4_363" x1="-689.038" y1="809.618" x2="-754.265" y2="1345.64" gradientUnits="userSpaceOnUse">
<stop stop-color="#FDC6C6"/>
<stop offset="1" stop-color="#FAB2B2"/>
</linearGradient>
<linearGradient id="paint6_linear_4_363" x1="553.657" y1="614.375" x2="216.973" y2="788.699" gradientUnits="userSpaceOnUse">
<stop stop-color="#4D63A0"/>
<stop offset="1" stop-color="#222735"/>
</linearGradient>
<linearGradient id="paint7_linear_4_363" x1="599.731" y1="300.97" x2="599.731" y2="1957.47" gradientUnits="userSpaceOnUse">
<stop stop-color="#FE62BE"/>
<stop offset="1" stop-color="#FDB3A8"/>
</linearGradient>
<linearGradient id="paint8_linear_4_363" x1="-377.551" y1="338.307" x2="-204.399" y2="1985.74" gradientUnits="userSpaceOnUse">
<stop stop-color="#FE62BE"/>
<stop offset="1" stop-color="#FDB3A8"/>
</linearGradient>
<linearGradient id="paint9_linear_4_363" x1="-615.833" y1="416.898" x2="-775.668" y2="2473.87" gradientUnits="userSpaceOnUse">
<stop stop-color="#FDC6C6"/>
<stop offset="1" stop-color="#FAB2B2"/>
</linearGradient>
<linearGradient id="paint10_linear_4_363" x1="-1382.34" y1="-1086.49" x2="-1741.69" y2="4969.77" gradientUnits="userSpaceOnUse">
<stop stop-color="#FDC6C6"/>
<stop offset="1" stop-color="#FAB2B2"/>
</linearGradient>
<linearGradient id="paint11_linear_4_363" x1="-493.535" y1="-635.666" x2="-1195.37" y2="4375.01" gradientUnits="userSpaceOnUse">
<stop stop-color="#FFAFAF"/>
<stop offset="1" stop-color="#F07777"/>
</linearGradient>
<linearGradient id="paint12_linear_4_363" x1="-297.75" y1="116.511" x2="-964.56" y2="3031.77" gradientUnits="userSpaceOnUse">
<stop stop-color="#FDC6C6"/>
<stop offset="1" stop-color="#FAB2B2"/>
</linearGradient>
<linearGradient id="paint13_linear_4_363" x1="-996.338" y1="752.835" x2="-1153.21" y2="2524.19" gradientUnits="userSpaceOnUse">
<stop stop-color="#FDC6C6"/>
<stop offset="1" stop-color="#FAB2B2"/>
</linearGradient>
<linearGradient id="paint14_linear_4_363" x1="-1617.04" y1="1112.91" x2="-1770.63" y2="2528.13" gradientUnits="userSpaceOnUse">
<stop stop-color="#FDC6C6"/>
<stop offset="1" stop-color="#FAB2B2"/>
</linearGradient>
<linearGradient id="paint15_linear_4_363" x1="2305.32" y1="-1024.58" x2="3497.78" y2="3758.12" gradientUnits="userSpaceOnUse">
<stop stop-color="#9FBDF6"/>
<stop offset="1" stop-color="#7D9AFF"/>
</linearGradient>
<linearGradient id="paint16_linear_4_363" x1="-787.719" y1="221.712" x2="464.466" y2="2795.99" gradientUnits="userSpaceOnUse">
<stop stop-color="#FDC6C6"/>
<stop offset="1" stop-color="#A47070"/>
</linearGradient>
<linearGradient id="paint17_linear_4_363" x1="-1197.52" y1="-806.723" x2="-1460.59" y2="3886.02" gradientUnits="userSpaceOnUse">
<stop stop-color="#FDC6C6"/>
<stop offset="1" stop-color="#A47070"/>
</linearGradient>
<linearGradient id="paint18_linear_4_363" x1="-672.665" y1="-420.586" x2="-861.15" y2="2844.59" gradientUnits="userSpaceOnUse">
<stop stop-color="#FDC6C6"/>
<stop offset="1" stop-color="#A47070"/>
</linearGradient>
<linearGradient id="paint19_linear_4_363" x1="-5321.14" y1="336.867" x2="-5321.14" y2="654.777" gradientUnits="userSpaceOnUse">
<stop stop-color="#727272"/>
<stop offset="1" stop-color="#7DFF93"/>
</linearGradient>
<linearGradient id="paint20_linear_4_363" x1="-3967.61" y1="-545.066" x2="-3967.61" y2="4317.61" gradientUnits="userSpaceOnUse">
<stop stop-color="#727272"/>
<stop offset="1" stop-color="#7DFF93"/>
</linearGradient>
<linearGradient id="paint21_linear_4_363" x1="-1386.37" y1="-3.40804" x2="881.521" y2="4591.9" gradientUnits="userSpaceOnUse">
<stop stop-color="#FDC6C6"/>
<stop offset="1" stop-color="#FFCCA1"/>
</linearGradient>
<linearGradient id="paint22_linear_4_363" x1="-286.344" y1="-164.748" x2="-409.141" y2="2664.19" gradientUnits="userSpaceOnUse">
<stop stop-color="#FDC6C6"/>
<stop offset="1" stop-color="#FAB2B2"/>
</linearGradient>
<linearGradient id="paint23_linear_4_363" x1="-225.742" y1="-112.718" x2="-351.636" y2="2491.21" gradientUnits="userSpaceOnUse">
<stop stop-color="#FDC6C6"/>
<stop offset="1" stop-color="#FAB2B2"/>
</linearGradient>
<linearGradient id="paint24_linear_4_363" x1="-894.903" y1="-676.101" x2="-1129.32" y2="3505.93" gradientUnits="userSpaceOnUse">
<stop stop-color="#FDC6C6"/>
<stop offset="1" stop-color="#FFCCA1"/>
</linearGradient>
<linearGradient id="paint25_linear_4_363" x1="-1671.98" y1="-23.4477" x2="-1971.39" y2="3992.86" gradientUnits="userSpaceOnUse">
<stop stop-color="#FDC6C6"/>
<stop offset="1" stop-color="#FFCCA1"/>
</linearGradient>
</defs>
</svg>
