<svg width="1920" height="925" viewBox="0 0 1920 925" fill="none" xmlns="http://www.w3.org/2000/svg">
<g filter="url(#filter0_f_920_21)">
<path d="M1277.69 911.275C1268.51 911.275 1259.6 910.517 1250.95 909C1242.3 907.407 1234.57 905.208 1227.74 902.401L1231.84 871.684C1240.18 875.173 1248.45 877.865 1256.64 879.761C1264.91 881.657 1272.53 882.605 1279.51 882.605C1287.62 882.605 1293.84 881.164 1298.17 878.282C1302.49 875.4 1304.65 871.266 1304.65 865.881C1304.65 858.828 1300.21 853.215 1291.34 849.043L1268.13 837.78C1256.68 832.168 1247.8 825.228 1241.51 816.96C1235.21 808.693 1232.07 799.554 1232.07 789.542C1232.07 775.435 1236.73 764.513 1246.06 756.776C1255.39 749.04 1268.59 745.172 1285.65 745.172C1295.59 745.172 1304.99 746.916 1313.87 750.405C1322.82 753.894 1330.74 758.938 1337.64 765.537L1316.94 789.314C1311.7 784.309 1306.43 780.478 1301.12 777.824C1295.81 775.093 1290.69 773.728 1285.76 773.728C1279.09 773.728 1273.89 775.169 1270.18 778.051C1266.46 780.858 1264.6 784.953 1264.6 790.338C1264.6 793.903 1265.89 797.278 1268.47 800.464C1271.13 803.649 1274.88 806.532 1279.73 809.11L1301.58 820.374C1312.96 826.29 1321.72 833.192 1327.86 841.08C1334.08 848.968 1337.19 857.424 1337.19 866.45C1337.19 880.785 1332.03 891.859 1321.72 899.671C1311.4 907.407 1296.72 911.275 1277.69 911.275Z" fill="white" fill-opacity="0.08"/>
<path d="M1356.14 909V747.447H1386.18V909H1356.14ZM1356.14 909V881.354H1466.95V909H1356.14ZM1356.14 841.99V814.23H1446.48V841.99H1356.14ZM1356.14 775.093V747.447H1466.95V775.093H1356.14Z" fill="white" fill-opacity="0.08"/>
<path d="M1467.93 909L1514.58 747.447H1551.44L1598.08 909H1565.66L1534.03 786.925H1531.98L1500.36 909H1467.93ZM1491.48 878.396V850.636H1573.4V878.396H1491.48Z" fill="white" fill-opacity="0.08"/>
<path d="M1730.76 909V747.447H1760.8V909H1730.76ZM1730.76 909V881.354H1841.57V909H1730.76Z" fill="white" fill-opacity="0.08"/>
<path d="M1842.55 909L1889.2 747.447H1926.06L1972.71 909H1940.28L1908.65 786.925H1906.6L1874.98 909H1842.55ZM1866.1 878.396V850.636H1948.02V878.396H1866.1Z" fill="white" fill-opacity="0.08"/>
<path d="M2008.95 909V881.354H2037.74C2045.93 881.354 2052.3 879.42 2056.85 875.552C2061.4 871.684 2063.68 866.261 2063.68 859.283C2063.68 852.381 2061.29 847.034 2056.51 843.241C2051.73 839.449 2044.94 837.553 2036.14 837.553H2009.41L2006.68 825.493H2051.27C2065.31 825.493 2076.11 828.906 2083.7 835.732C2091.36 842.559 2095.19 852.191 2095.19 864.63C2095.19 878.737 2090.75 889.659 2081.88 897.396C2073.08 905.132 2060.57 909 2044.33 909H2008.95ZM1980.51 909V747.447H2010.54V909H1980.51ZM2001.22 829.589V818.439H2046.04V829.589H2001.22ZM2008.95 821.853V809.793H2030.91C2037.96 809.793 2043.27 808.276 2046.84 805.242C2050.48 802.132 2052.3 797.582 2052.3 791.59C2052.3 786.129 2050.36 782.033 2046.5 779.303C2042.7 776.496 2036.98 775.093 2029.32 775.093H2009.41L2006.68 747.447H2030.45C2047.44 747.447 2060.57 750.936 2069.82 757.914C2079.15 764.816 2083.81 774.676 2083.81 787.494C2083.81 798.492 2080.21 806.987 2073 812.979C2065.8 818.895 2055.6 821.853 2042.4 821.853H2008.95Z" fill="white" fill-opacity="0.08"/>
<path d="M2157.38 911.275C2116.34 911.275 2095.83 883.971 2095.83 829.361C2095.83 773.235 2116.34 745.172 2157.38 745.172C2198.41 745.172 2218.93 773.235 2218.93 829.361C2218.93 883.971 2198.41 911.275 2157.38 911.275ZM2157.38 882.605C2177.4 882.605 2187.41 864.857 2187.41 829.361C2187.41 792.348 2177.4 773.842 2157.38 773.842C2137.35 773.842 2127.34 792.348 2127.34 829.361C2127.34 864.857 2137.35 882.605 2157.38 882.605Z" fill="white" fill-opacity="0.08"/>
<path d="M2256.42 849.84V822.194H2285.43C2292.41 822.194 2297.84 820.146 2301.7 816.05C2305.57 811.879 2307.51 806.076 2307.51 798.644C2307.51 791.135 2305.57 785.333 2301.7 781.237C2297.84 777.141 2292.41 775.093 2285.43 775.093H2256.88L2254.15 747.447H2285.43C2302.8 747.447 2316.23 751.695 2325.71 760.189C2335.19 768.684 2339.93 780.744 2339.93 796.368C2339.93 813.282 2335.19 826.441 2325.71 835.846C2316.23 845.175 2302.8 849.84 2285.43 849.84H2256.42ZM2227.98 909V747.447H2258.02V909H2227.98ZM2310.01 909L2279.52 833.002H2311.15L2345.85 909H2310.01Z" fill="white" fill-opacity="0.08"/>
<path d="M2342.05 909L2388.69 747.447H2425.55L2472.2 909H2439.77L2408.15 786.925H2406.1L2374.47 909H2342.05ZM2365.6 878.396V850.636H2447.51V878.396H2365.6Z" fill="white" fill-opacity="0.08"/>
<path d="M2516.98 909V747.447H2547.01V909H2516.98ZM2470.9 775.093V747.447H2593.09V775.093H2470.9Z" fill="white" fill-opacity="0.08"/>
<path d="M2656.87 911.275C2615.84 911.275 2595.32 883.971 2595.32 829.361C2595.32 773.235 2615.84 745.172 2656.87 745.172C2697.9 745.172 2718.42 773.235 2718.42 829.361C2718.42 883.971 2697.9 911.275 2656.87 911.275ZM2656.87 882.605C2676.89 882.605 2686.9 864.857 2686.9 829.361C2686.9 792.348 2676.89 773.842 2656.87 773.842C2636.85 773.842 2626.83 792.348 2626.83 829.361C2626.83 864.857 2636.85 882.605 2656.87 882.605Z" fill="white" fill-opacity="0.08"/>
<path d="M2755.92 849.84V822.194H2784.93C2791.91 822.194 2797.33 820.146 2801.2 816.05C2805.07 811.879 2807 806.076 2807 798.644C2807 791.135 2805.07 785.333 2801.2 781.237C2797.33 777.141 2791.91 775.093 2784.93 775.093H2756.37L2753.64 747.447H2784.93C2802.3 747.447 2815.72 751.695 2825.2 760.189C2834.68 768.684 2839.42 780.744 2839.42 796.368C2839.42 813.282 2834.68 826.441 2825.2 835.846C2815.72 845.175 2802.3 849.84 2784.93 849.84H2755.92ZM2727.47 909V747.447H2757.51V909H2727.47ZM2809.5 909L2779.01 833.002H2810.64L2845.34 909H2809.5Z" fill="white" fill-opacity="0.08"/>
<path d="M2893.31 860.762L2839.26 747.447H2872.83L2905.59 822.535H2907.64L2940.41 747.447H2973.97L2919.93 860.762H2893.31ZM2891.6 909V829.361H2921.63V909H2891.6Z" fill="white" fill-opacity="0.08"/>
<path d="M-93.4727 116.658V84.7441H-89.4414L-89.0215 89.4473V116.658H-93.4727ZM-82.7017 107.42C-84.4093 107.42 -85.7881 107.028 -86.8379 106.244C-87.8737 105.46 -88.4616 104.368 -88.6016 102.969H-90.5332L-89.0215 96.6279C-89.0215 98.9235 -88.5736 100.666 -87.6777 101.856C-86.7679 103.046 -85.4382 103.641 -83.6885 103.641C-81.8968 103.641 -80.5391 103.004 -79.6152 101.73C-78.6914 100.456 -78.2295 98.5736 -78.2295 96.082C-78.2295 93.4505 -78.6914 91.4629 -79.6152 90.1191C-80.5391 88.7754 -81.8968 88.1035 -83.6885 88.1035C-85.4382 88.1035 -86.7679 88.6984 -87.6777 89.8882C-88.5736 91.078 -89.0215 92.8206 -89.0215 95.1162L-90.5332 88.7754H-88.8115C-88.6156 87.3757 -87.9857 86.2839 -86.9219 85.5C-85.8441 84.7161 -84.4373 84.3242 -82.7017 84.3242C-79.7762 84.3242 -77.5646 85.318 -76.0669 87.3057C-74.5692 89.2933 -73.8203 92.2188 -73.8203 96.082C-73.8203 99.8053 -74.5692 102.626 -76.0669 104.543C-77.5646 106.461 -79.7762 107.42 -82.7017 107.42Z" fill="white" fill-opacity="0.13"/>
<path d="M-60.0737 97.4258L-61.3755 90.4551H-59.6538C-59.4019 86.3678 -57.3583 84.3242 -53.523 84.3242C-51.2274 84.3242 -49.5617 84.9821 -48.5259 86.2979C-47.4901 87.6136 -46.9722 89.7412 -46.9722 92.6807H-51.3814C-51.3814 91.057 -51.6263 89.8882 -52.1162 89.1743C-52.5921 88.4604 -53.369 88.1035 -54.4468 88.1035C-56.3364 88.1035 -57.7502 88.9154 -58.688 90.5391C-59.6118 92.1488 -60.0737 94.4443 -60.0737 97.4258ZM-69.48 107V103.095H-54.6148V107H-69.48ZM-64.5249 107V84.7441H-60.9136L-60.0737 91.127V107H-64.5249ZM-68.6402 88.6494V84.7441H-61.2075L-60.7876 88.6494H-68.6402Z" fill="white" fill-opacity="0.13"/>
<path d="M-33.4776 107V86.0039H-29.0264V107H-33.4776ZM-41.96 107V103.095H-33.0577V107H-41.96ZM-29.4463 107V103.095H-22.1817V107H-29.4463ZM-40.7002 88.6494V84.7441H-29.0264V88.6494H-40.7002ZM-31.399 81.2168C-32.2528 81.2168 -32.9877 80.9159 -33.6036 80.314C-34.2054 79.6981 -34.5064 78.9632 -34.5064 78.1094C-34.5064 77.2415 -34.2054 76.5067 -33.6036 75.9048C-32.9877 75.3029 -32.2528 75.002 -31.399 75.002C-30.5311 75.002 -29.7963 75.3029 -29.1944 75.9048C-28.5925 76.5067 -28.2915 77.2415 -28.2915 78.1094C-28.2915 78.9632 -28.5925 79.6981 -29.1944 80.314C-29.7963 80.9159 -30.5311 81.2168 -31.399 81.2168Z" fill="white" fill-opacity="0.13"/>
<path d="M-2.26227 107V92.5127C-2.26227 91.1689 -2.6122 90.1331 -3.31207 89.4053C-4.01194 88.6774 -4.99176 88.3135 -6.25153 88.3135C-9.75087 88.3135 -11.5005 90.3711 -11.5005 94.4863L-12.8023 88.7754H-11.0806C-10.9547 87.2777 -10.4088 86.1649 -9.44293 85.437C-8.47711 84.6951 -7.06337 84.3242 -5.20172 84.3242C-2.85016 84.3242 -1.0305 85.0381 0.257263 86.4658C1.54502 87.8936 2.1889 89.9092 2.1889 92.5127V107H-2.26227ZM-15.9517 107V84.7441H-11.9205L-11.5005 89.4473V107H-15.9517Z" fill="white" fill-opacity="0.13"/>
<path d="M22.9902 107.42C19.6168 107.42 17.1742 106.72 15.6625 105.32C14.1648 103.921 13.4159 101.681 13.4159 98.6016V94.8223H17.8671V98.3916C17.8671 100.155 18.294 101.436 19.1479 102.234C20.0157 103.032 21.4364 103.431 23.4101 103.431C24.1099 103.431 24.8518 103.396 25.6357 103.326C26.4195 103.242 27.3154 103.137 28.3232 103.011L28.8271 106.916C27.8473 107.084 26.8884 107.21 25.9506 107.294C25.0268 107.378 24.04 107.42 22.9902 107.42ZM13.4159 96.502V78.0254H17.8671V96.502H13.4159ZM7.83098 88.6494V84.7441H27.9872V88.6494H7.83098Z" fill="white" fill-opacity="0.13"/>
<path d="M40.642 107V86.6338C40.642 78.9352 44.1553 75.0859 51.182 75.0859C52.7777 75.0859 54.3175 75.2259 55.8012 75.5059L55.3393 79.3691C54.4574 79.2572 53.6806 79.1802 53.0087 79.1382C52.3368 79.0962 51.6859 79.0752 51.0561 79.0752C47.0808 79.0752 45.0932 81.5247 45.0932 86.4238V107H40.642ZM33.6293 93.5625V89.6572H54.2055V93.5625H33.6293Z" fill="white" fill-opacity="0.13"/>
<path d="M77.9882 111.199C73.439 111.199 69.9047 109.527 67.3851 106.181C64.8796 102.822 63.6268 98.0837 63.6268 91.9668C63.6268 85.9339 64.8796 81.2658 67.3851 77.9624C69.9047 74.645 73.439 72.9863 77.9882 72.9863H78.996V76.7656H78.4081C75.0907 76.7656 72.5292 78.0954 70.7235 80.7549C68.9318 83.4144 68.036 87.1517 68.036 91.9668C68.036 96.8659 68.9318 100.666 70.7235 103.368C72.5292 106.069 75.0907 107.42 78.4081 107.42H78.996V111.199H77.9882Z" fill="white" fill-opacity="0.13"/>
<path d="M94.2123 92.5127C92.0147 92.5127 90.349 91.9738 89.2152 90.896C88.0814 89.8182 87.5145 88.2435 87.5145 86.1719C87.5145 84.8841 87.8155 83.5474 88.4173 82.1616C89.0192 80.7759 89.9431 79.4041 91.1888 78.0464L92.3646 76.7656L95.514 79.5371L94.2543 80.9019C93.4424 81.7697 92.8335 82.6515 92.4276 83.5474C92.0217 84.4292 91.8187 85.304 91.8187 86.1719C91.8187 86.9837 92.0777 87.5996 92.5956 88.0195C93.1135 88.4255 93.8623 88.6284 94.8421 88.6284H95.787V92.5127H94.2123ZM103.87 92.5127C101.673 92.5127 100.007 91.9738 98.8734 90.896C97.7396 89.8182 97.1727 88.2435 97.1727 86.1719C97.1727 84.8841 97.4737 83.5474 98.0755 82.1616C98.6774 80.7759 99.6013 79.4041 100.847 78.0464L102.023 76.7656L105.172 79.5371L103.912 80.9019C103.101 81.7697 102.492 82.6515 102.086 83.5474C101.68 84.4292 101.477 85.304 101.477 86.1719C101.477 86.9837 101.736 87.5996 102.254 88.0195C102.772 88.4255 103.521 88.6284 104.5 88.6284H105.445V92.5127H103.87Z" fill="white" fill-opacity="0.13"/>
<path d="M121.291 107.42C119.598 107.42 118.009 107.28 116.525 107C115.056 106.734 113.691 106.328 112.431 105.782L112.977 101.541C114.517 102.199 116 102.703 117.428 103.053C118.87 103.389 120.27 103.557 121.627 103.557C123.587 103.557 125.043 103.214 125.994 102.528C126.946 101.842 127.422 100.799 127.422 99.3994C127.422 97.6217 126.512 96.32 124.693 95.4941L119.528 93.1426C117.498 92.2188 115.937 91.106 114.846 89.8042C113.768 88.5024 113.229 86.8857 113.229 84.9541C113.229 82.3506 114.013 80.335 115.58 78.9072C117.148 77.4795 119.367 76.7656 122.236 76.7656C124.238 76.7656 126.008 77.0596 127.548 77.6475C129.088 78.2354 130.572 79.1942 131.999 80.5239L129.06 83.5054C127.828 82.4976 126.673 81.7697 125.596 81.3218C124.532 80.8599 123.419 80.6289 122.257 80.6289C120.815 80.6289 119.696 80.9788 118.898 81.6787C118.114 82.3646 117.722 83.3864 117.722 84.7441C117.722 85.71 117.981 86.5008 118.499 87.1167C119.017 87.7186 119.78 88.2575 120.787 88.7334L125.155 90.791C127.366 91.8268 129.046 92.9956 130.194 94.2974C131.341 95.5991 131.915 97.2718 131.915 99.3154C131.915 102.017 131.034 104.047 129.27 105.404C127.52 106.748 124.861 107.42 121.291 107.42Z" fill="white" fill-opacity="0.13"/>
<path d="M138.922 107V77.1855H143.289V107H138.922ZM138.922 107V103.011H158.659V107H138.922ZM138.922 94.0664V90.0771H154.879V94.0664H138.922ZM138.922 81.1748V77.1855H158.659V81.1748H138.922Z" fill="white" fill-opacity="0.13"/>
<path d="M162.348 107L170.956 77.1855H177.045L185.654 107H181.244L174.19 80.7969H173.812L166.757 107H162.348ZM166.337 99.7354V95.7461H181.454V99.7354H166.337Z" fill="white" fill-opacity="0.13"/>
<path d="M216.443 107V77.1855H220.81V107H216.443ZM216.443 107V103.011H236.179V107H216.443Z" fill="white" fill-opacity="0.13"/>
<path d="M256.099 107.21L255.805 100.617L255.217 98.7695V93.0166C255.217 91.5329 254.692 90.4481 253.642 89.7622C252.607 89.0623 251.06 88.6844 249.002 88.6284L243.669 88.4814L244.089 84.5342L248.582 84.5972C252.264 84.6532 254.993 85.451 256.771 86.9907C258.562 88.5164 259.458 90.749 259.458 93.6885V102.969L263.238 103.431V107L256.099 107.21ZM248.246 107.42C245.923 107.42 244.124 106.86 242.85 105.74C241.577 104.62 240.94 103.039 240.94 100.995C240.94 98.6436 241.815 96.8379 243.564 95.5781C245.328 94.3184 247.812 93.6885 251.018 93.6885C252.348 93.6885 253.53 93.7725 254.566 93.9404C255.616 94.0944 256.547 94.3324 257.359 94.6543L256.435 97.6777C255.497 97.4678 254.58 97.3488 253.684 97.3208C252.788 97.2788 251.872 97.2578 250.934 97.2578C247.071 97.2578 245.139 98.4336 245.139 100.785C245.139 101.765 245.468 102.521 246.126 103.053C246.798 103.585 247.742 103.851 248.96 103.851C250.346 103.851 251.501 103.613 252.425 103.137C253.362 102.661 254.062 102.052 254.524 101.31C254.986 100.568 255.217 99.8053 255.217 99.0215V96.5859L256.519 102.297H254.755L255.469 101.625C255.469 102.913 255.168 103.991 254.566 104.858C253.978 105.712 253.145 106.356 252.068 106.79C250.99 107.21 249.716 107.42 248.246 107.42Z" fill="white" fill-opacity="0.13"/>
<path d="M274.15 107.42C273.142 107.42 272.148 107.378 271.168 107.294C270.188 107.224 269.195 107.126 268.187 107L269.908 102.927C270.65 103.277 271.469 103.487 272.365 103.557C273.261 103.613 274.15 103.641 275.031 103.641C277.705 103.641 279.77 102.836 281.225 101.226C282.695 99.6164 283.43 97.3418 283.43 94.4023C283.43 92.3867 282.982 90.833 282.086 89.7412C281.204 88.6494 279.945 88.1035 278.307 88.1035C274.528 88.1035 272.638 90.2311 272.638 94.4863L271.336 88.7754H273.058C273.268 85.8079 275.087 84.3242 278.517 84.3242C281.484 84.3242 283.78 85.1991 285.404 86.9487C287.027 88.6984 287.839 91.1829 287.839 94.4023C287.839 98.5316 286.642 101.737 284.249 104.019C281.869 106.286 278.503 107.42 274.15 107.42ZM268.187 107V75.5059H272.638V106.622L268.187 107Z" fill="white" fill-opacity="0.13"/>
<path d="M303.202 107.42C300.123 107.42 297.729 106.412 296.022 104.396C294.314 102.381 293.46 99.5394 293.46 95.8721C293.46 92.1908 294.314 89.3493 296.022 87.3477C297.729 85.332 300.123 84.3242 303.202 84.3242C306.296 84.3242 308.689 85.332 310.383 87.3477C312.091 89.3493 312.945 92.1908 312.945 95.8721C312.945 99.5394 312.091 102.381 310.383 104.396C308.689 106.412 306.296 107.42 303.202 107.42ZM303.202 103.431C304.84 103.431 306.1 102.773 306.982 101.457C307.877 100.141 308.325 98.2796 308.325 95.8721C308.325 93.4505 307.877 91.5889 306.982 90.2871C306.1 88.9714 304.84 88.3135 303.202 88.3135C301.565 88.3135 300.298 88.9714 299.402 90.2871C298.52 91.5889 298.079 93.4505 298.079 95.8721C298.079 98.2796 298.52 100.141 299.402 101.457C300.298 102.773 301.565 103.431 303.202 103.431Z" fill="white" fill-opacity="0.13"/>
<path d="M327.531 97.4258L326.229 90.4551H327.951C328.203 86.3678 330.246 84.3242 334.082 84.3242C336.377 84.3242 338.043 84.9821 339.079 86.2979C340.115 87.6136 340.633 89.7412 340.633 92.6807H336.223C336.223 91.057 335.978 89.8882 335.488 89.1743C335.013 88.4604 334.236 88.1035 333.158 88.1035C331.268 88.1035 329.855 88.9154 328.917 90.5391C327.993 92.1488 327.531 94.4443 327.531 97.4258ZM318.125 107V103.095H332.99V107H318.125ZM323.08 107V84.7441H326.691L327.531 91.127V107H323.08ZM318.965 88.6494V84.7441H326.397L326.817 88.6494H318.965Z" fill="white" fill-opacity="0.13"/>
<path d="M359.46 107.21L359.166 100.617L358.578 98.7695V93.0166C358.578 91.5329 358.053 90.4481 357.004 89.7622C355.968 89.0623 354.421 88.6844 352.363 88.6284L347.03 88.4814L347.45 84.5342L351.944 84.5972C355.625 84.6532 358.354 85.451 360.132 86.9907C361.924 88.5164 362.819 90.749 362.819 93.6885V102.969L366.599 103.431V107L359.46 107.21ZM351.608 107.42C349.284 107.42 347.485 106.86 346.212 105.74C344.938 104.62 344.301 103.039 344.301 100.995C344.301 98.6436 345.176 96.8379 346.925 95.5781C348.689 94.3184 351.174 93.6885 354.379 93.6885C355.709 93.6885 356.892 93.7725 357.927 93.9404C358.977 94.0944 359.908 94.3324 360.72 94.6543L359.796 97.6777C358.858 97.4678 357.941 97.3488 357.046 97.3208C356.15 97.2788 355.233 97.2578 354.295 97.2578C350.432 97.2578 348.5 98.4336 348.5 100.785C348.5 101.765 348.829 102.521 349.487 103.053C350.159 103.585 351.104 103.851 352.321 103.851C353.707 103.851 354.862 103.613 355.786 103.137C356.724 102.661 357.423 102.052 357.885 101.31C358.347 100.568 358.578 99.8053 358.578 99.0215V96.5859L359.88 102.297H358.116L358.83 101.625C358.83 102.913 358.529 103.991 357.927 104.858C357.34 105.712 356.507 106.356 355.429 106.79C354.351 107.21 353.077 107.42 351.608 107.42Z" fill="white" fill-opacity="0.13"/>
<path d="M384.755 107.42C381.381 107.42 378.939 106.72 377.427 105.32C375.929 103.921 375.18 101.681 375.18 98.6016V94.8223H379.631V98.3916C379.631 100.155 380.058 101.436 380.912 102.234C381.78 103.032 383.201 103.431 385.174 103.431C385.874 103.431 386.616 103.396 387.4 103.326C388.184 103.242 389.08 103.137 390.088 103.011L390.591 106.916C389.612 107.084 388.653 107.21 387.715 107.294C386.791 107.378 385.804 107.42 384.755 107.42ZM375.18 96.502V78.0254H379.631V96.502H375.18ZM369.595 88.6494V84.7441H389.752V88.6494H369.595Z" fill="white" fill-opacity="0.13"/>
<path d="M406.564 107.42C403.484 107.42 401.091 106.412 399.383 104.396C397.675 102.381 396.821 99.5394 396.821 95.8721C396.821 92.1908 397.675 89.3493 399.383 87.3477C401.091 85.332 403.484 84.3242 406.564 84.3242C409.657 84.3242 412.051 85.332 413.744 87.3477C415.452 89.3493 416.306 92.1908 416.306 95.8721C416.306 99.5394 415.452 102.381 413.744 104.396C412.051 106.412 409.657 107.42 406.564 107.42ZM406.564 103.431C408.201 103.431 409.461 102.773 410.343 101.457C411.239 100.141 411.687 98.2796 411.687 95.8721C411.687 93.4505 411.239 91.5889 410.343 90.2871C409.461 88.9714 408.201 88.3135 406.564 88.3135C404.926 88.3135 403.659 88.9714 402.763 90.2871C401.881 91.5889 401.441 93.4505 401.441 95.8721C401.441 98.2796 401.881 100.141 402.763 101.457C403.659 102.773 404.926 103.431 406.564 103.431Z" fill="white" fill-opacity="0.13"/>
<path d="M430.892 97.4258L429.59 90.4551H431.312C431.564 86.3678 433.608 84.3242 437.443 84.3242C439.739 84.3242 441.404 84.9821 442.44 86.2979C443.476 87.6136 443.994 89.7412 443.994 92.6807H439.585C439.585 91.057 439.34 89.8882 438.85 89.1743C438.374 88.4604 437.597 88.1035 436.519 88.1035C434.63 88.1035 433.216 88.9154 432.278 90.5391C431.354 92.1488 430.892 94.4443 430.892 97.4258ZM421.486 107V103.095H436.351V107H421.486ZM426.441 107V84.7441H430.052L430.892 91.127V107H426.441ZM422.326 88.6494V84.7441H429.758L430.178 88.6494H422.326Z" fill="white" fill-opacity="0.13"/>
<path d="M447.221 117.078L447.011 113.089L450.497 112.669C451.966 112.487 453.219 112.088 454.255 111.472C455.305 110.856 456.201 109.939 456.942 108.722C457.684 107.518 458.335 105.936 458.895 103.977L464.438 84.7441H469.057L462.632 105.026C461.793 107.686 460.848 109.827 459.798 111.451C458.762 113.075 457.53 114.293 456.103 115.104C454.689 115.916 452.988 116.434 451.001 116.658L447.221 117.078ZM455.662 107L446.801 84.7441H451.42L458.685 103.641H459.357V107H455.662Z" fill="white" fill-opacity="0.13"/>
<path d="M488.2 92.9326L485.05 90.1611L486.31 88.7964C487.122 87.9285 487.731 87.0467 488.137 86.1509C488.543 85.255 488.746 84.3802 488.746 83.5264C488.746 82.7145 488.487 82.1056 487.969 81.6997C487.465 81.2798 486.716 81.0698 485.722 81.0698H484.777V77.1855H486.352C488.564 77.1855 490.229 77.7244 491.349 78.8022C492.483 79.866 493.05 81.4408 493.05 83.5264C493.05 84.8001 492.749 86.1369 492.147 87.5366C491.545 88.9224 490.621 90.2941 489.376 91.6519L488.2 92.9326ZM478.542 92.9326L475.392 90.1611L476.652 88.7964C477.464 87.9285 478.073 87.0467 478.479 86.1509C478.885 85.255 479.087 84.3802 479.087 83.5264C479.087 82.7145 478.829 82.1056 478.311 81.6997C477.807 81.2798 477.058 81.0698 476.064 81.0698H475.119V77.1855H476.694C478.905 77.1855 480.571 77.7244 481.691 78.8022C482.825 79.866 483.392 81.4408 483.392 83.5264C483.392 84.8001 483.091 86.1369 482.489 87.5366C481.887 88.9224 480.963 90.2941 479.717 91.6519L478.542 92.9326Z" fill="white" fill-opacity="0.13"/>
<path d="M501.568 111.199V107.42H502.156C505.474 107.42 508.028 106.069 509.82 103.368C511.626 100.666 512.528 96.8659 512.528 91.9668C512.528 87.1517 511.626 83.4144 509.82 80.7549C508.028 78.0954 505.474 76.7656 502.156 76.7656H501.568V72.9863H502.576C507.139 72.9863 510.674 74.645 513.179 77.9624C515.685 81.2658 516.938 85.9339 516.938 91.9668C516.938 98.0837 515.685 102.822 513.179 106.181C510.674 109.527 507.139 111.199 502.576 111.199H501.568Z" fill="white" fill-opacity="0.13"/>
<path d="M535.765 90.5391C534.911 90.5391 534.176 90.2381 533.561 89.6362C532.959 89.0203 532.658 88.2855 532.658 87.4316C532.658 86.5638 532.959 85.8289 533.561 85.2271C534.176 84.6252 534.911 84.3242 535.765 84.3242C536.633 84.3242 537.368 84.6252 537.97 85.2271C538.572 85.8289 538.873 86.5638 538.873 87.4316C538.873 88.2855 538.572 89.0203 537.97 89.6362C537.368 90.2381 536.633 90.5391 535.765 90.5391ZM531.818 116.154L533.498 101.667H538.369L535.849 116.154H531.818Z" fill="white" fill-opacity="0.13"/>
<path d="M20.0713 904.925L1.82812 897.422V893.575L20.0713 886.072V890.262L5.97949 895.327V895.67L20.0713 900.735V904.925Z" fill="white" fill-opacity="0.25"/>
<path d="M39.0518 909V895.86C39.0518 894.578 38.7344 893.594 38.0996 892.909C37.4649 892.21 36.5762 891.861 35.4336 891.861C32.2598 891.861 30.6729 893.791 30.6729 897.65L29.4922 892.471H31.0537C31.168 891.112 31.6631 890.103 32.5391 889.443C33.4151 888.77 34.6973 888.434 36.3858 888.434C38.5186 888.434 40.169 889.081 41.3369 890.376C42.5049 891.671 43.0889 893.499 43.0889 895.86V909H39.0518ZM26.6358 909V880.436H30.6729V909H26.6358Z" fill="white" fill-opacity="0.25"/>
<path d="M56.8897 909V881.959H60.8507V909H56.8897ZM50.1104 909V905.382H57.2706V909H50.1104ZM60.4698 909V905.382H66.9063V909H60.4698ZM50.4913 888.091V884.244L56.8897 881.959V885.882L50.4913 888.091Z" fill="white" fill-opacity="0.25"/>
<path d="M73.09 904.925V900.735L86.42 895.67V895.327L73.09 890.262V886.072L91.3331 893.575V897.422L73.09 904.925Z" fill="white" fill-opacity="0.25"/>
<path d="M104.239 909.381C102.703 909.381 101.262 909.254 99.9162 909C98.5832 908.759 97.3454 908.391 96.2028 907.896L96.6979 904.049C98.0944 904.646 99.4401 905.103 100.735 905.42C102.043 905.725 103.312 905.877 104.544 905.877C106.321 905.877 107.641 905.566 108.505 904.944C109.368 904.322 109.799 903.376 109.799 902.106C109.799 900.494 108.974 899.313 107.324 898.564L102.639 896.432C100.798 895.594 99.383 894.584 98.3927 893.404C97.4152 892.223 96.9264 890.757 96.9264 889.005C96.9264 886.644 97.6374 884.815 99.0592 883.521C100.481 882.226 102.493 881.578 105.096 881.578C106.911 881.578 108.517 881.845 109.914 882.378C111.31 882.911 112.656 883.781 113.951 884.987L111.285 887.691C110.168 886.777 109.12 886.117 108.143 885.71C107.178 885.292 106.169 885.082 105.115 885.082C103.807 885.082 102.792 885.399 102.068 886.034C101.357 886.656 101.002 887.583 101.002 888.814C101.002 889.69 101.236 890.408 101.706 890.966C102.176 891.512 102.868 892.001 103.782 892.433L107.743 894.299C109.749 895.238 111.272 896.298 112.313 897.479C113.354 898.66 113.875 900.177 113.875 902.03C113.875 904.48 113.075 906.321 111.475 907.553C109.888 908.771 107.476 909.381 104.239 909.381Z" fill="white" fill-opacity="0.25"/>
<path d="M120.23 909V881.959H124.191V909H120.23ZM120.23 909V905.382H138.13V909H120.23ZM120.23 897.27V893.651H134.702V897.27H120.23ZM120.23 885.577V881.959H138.13V885.577H120.23Z" fill="white" fill-opacity="0.25"/>
<path d="M141.476 909L149.284 881.959H154.806L162.614 909H158.615L152.217 885.234H151.874L145.475 909H141.476ZM145.094 902.411V898.793H158.805V902.411H145.094Z" fill="white" fill-opacity="0.25"/>
<path d="M190.539 909V881.959H194.5V909H190.539ZM190.539 909V905.382H208.44V909H190.539Z" fill="white" fill-opacity="0.25"/>
<path d="M226.506 909.19L226.24 903.211L225.706 901.535V896.317C225.706 894.972 225.23 893.988 224.278 893.366C223.339 892.731 221.936 892.388 220.07 892.337L215.233 892.204L215.614 888.624L219.689 888.681C223.028 888.732 225.503 889.456 227.116 890.852C228.741 892.236 229.553 894.261 229.553 896.927V905.344L232.981 905.763V909L226.506 909.19ZM219.384 909.381C217.277 909.381 215.645 908.873 214.49 907.857C213.335 906.842 212.757 905.407 212.757 903.554C212.757 901.421 213.551 899.783 215.138 898.641C216.737 897.498 218.991 896.927 221.898 896.927C223.104 896.927 224.177 897.003 225.116 897.155C226.068 897.295 226.912 897.511 227.649 897.803L226.811 900.545C225.96 900.354 225.129 900.247 224.316 900.221C223.504 900.183 222.672 900.164 221.822 900.164C218.318 900.164 216.566 901.23 216.566 903.363C216.566 904.252 216.864 904.938 217.461 905.42C218.07 905.902 218.927 906.144 220.032 906.144C221.288 906.144 222.336 905.928 223.174 905.496C224.024 905.064 224.659 904.512 225.078 903.839C225.497 903.167 225.706 902.475 225.706 901.764V899.555L226.887 904.734H225.287L225.935 904.125C225.935 905.293 225.662 906.271 225.116 907.058C224.583 907.832 223.828 908.416 222.85 908.81C221.872 909.19 220.717 909.381 219.384 909.381Z" fill="white" fill-opacity="0.25"/>
<path d="M242.878 909.381C241.964 909.381 241.062 909.343 240.174 909.267C239.285 909.203 238.384 909.114 237.47 909L239.031 905.306C239.704 905.623 240.447 905.813 241.259 905.877C242.072 905.928 242.878 905.953 243.678 905.953C246.102 905.953 247.975 905.223 249.295 903.763C250.628 902.303 251.295 900.24 251.295 897.574C251.295 895.746 250.889 894.337 250.076 893.347C249.276 892.356 248.134 891.861 246.648 891.861C243.221 891.861 241.507 893.791 241.507 897.65L240.326 892.471H241.888C242.078 889.779 243.728 888.434 246.839 888.434C249.53 888.434 251.612 889.227 253.085 890.814C254.558 892.401 255.294 894.654 255.294 897.574C255.294 901.319 254.208 904.227 252.038 906.296C249.879 908.353 246.826 909.381 242.878 909.381ZM237.47 909V880.436H241.507V908.657L237.47 909Z" fill="white" fill-opacity="0.25"/>
<path d="M269.228 909.381C266.435 909.381 264.264 908.467 262.715 906.639C261.166 904.811 260.392 902.233 260.392 898.907C260.392 895.568 261.166 892.991 262.715 891.176C264.264 889.348 266.435 888.434 269.228 888.434C272.034 888.434 274.205 889.348 275.741 891.176C277.289 892.991 278.064 895.568 278.064 898.907C278.064 902.233 277.289 904.811 275.741 906.639C274.205 908.467 272.034 909.381 269.228 909.381ZM269.228 905.763C270.713 905.763 271.856 905.166 272.656 903.973C273.468 902.779 273.874 901.091 273.874 898.907C273.874 896.711 273.468 895.022 272.656 893.842C271.856 892.648 270.713 892.052 269.228 892.052C267.743 892.052 266.594 892.648 265.781 893.842C264.981 895.022 264.581 896.711 264.581 898.907C264.581 901.091 264.981 902.779 265.781 903.973C266.594 905.166 267.743 905.763 269.228 905.763Z" fill="white" fill-opacity="0.25"/>
<path d="M291.293 900.316L290.113 893.994H291.674C291.903 890.287 293.756 888.434 297.235 888.434C299.317 888.434 300.828 889.03 301.767 890.224C302.707 891.417 303.176 893.347 303.176 896.013H299.177C299.177 894.54 298.955 893.48 298.511 892.833C298.079 892.185 297.374 891.861 296.397 891.861C294.683 891.861 293.401 892.598 292.55 894.07C291.712 895.53 291.293 897.612 291.293 900.316ZM282.762 909V905.458H296.245V909H282.762ZM287.256 909V888.814H290.532L291.293 894.604V909H287.256ZM283.524 892.356V888.814H290.265L290.646 892.356H283.524Z" fill="white" fill-opacity="0.25"/>
<path d="M320.252 909.19L319.986 903.211L319.453 901.535V896.317C319.453 894.972 318.977 893.988 318.024 893.366C317.085 892.731 315.682 892.388 313.816 892.337L308.979 892.204L309.36 888.624L313.435 888.681C316.774 888.732 319.25 889.456 320.862 890.852C322.487 892.236 323.299 894.261 323.299 896.927V905.344L326.727 905.763V909L320.252 909.19ZM313.13 909.381C311.023 909.381 309.392 908.873 308.236 907.857C307.081 906.842 306.503 905.407 306.503 903.554C306.503 901.421 307.297 899.783 308.884 898.641C310.483 897.498 312.737 896.927 315.644 896.927C316.85 896.927 317.923 897.003 318.862 897.155C319.814 897.295 320.659 897.511 321.395 897.803L320.557 900.545C319.707 900.354 318.875 900.247 318.063 900.221C317.25 900.183 316.418 900.164 315.568 900.164C312.064 900.164 310.312 901.23 310.312 903.363C310.312 904.252 310.61 904.938 311.207 905.42C311.816 905.902 312.673 906.144 313.778 906.144C315.035 906.144 316.082 905.928 316.92 905.496C317.771 905.064 318.405 904.512 318.824 903.839C319.243 903.167 319.453 902.475 319.453 901.764V899.555L320.633 904.734H319.034L319.681 904.125C319.681 905.293 319.408 906.271 318.862 907.058C318.329 907.832 317.574 908.416 316.596 908.81C315.619 909.19 314.463 909.381 313.13 909.381Z" fill="white" fill-opacity="0.25"/>
<path d="M343.194 909.381C340.134 909.381 337.919 908.746 336.548 907.477C335.19 906.207 334.51 904.176 334.51 901.383V897.955H338.547V901.192C338.547 902.792 338.935 903.954 339.709 904.677C340.496 905.401 341.785 905.763 343.575 905.763C344.21 905.763 344.882 905.731 345.593 905.667C346.304 905.591 347.117 905.496 348.031 905.382L348.488 908.924C347.599 909.076 346.73 909.19 345.879 909.267C345.041 909.343 344.146 909.381 343.194 909.381ZM334.51 899.479V882.721H338.547V899.479H334.51ZM329.445 892.356V888.814H347.726V892.356H329.445Z" fill="white" fill-opacity="0.25"/>
<path d="M362.974 909.381C360.181 909.381 358.01 908.467 356.462 906.639C354.913 904.811 354.138 902.233 354.138 898.907C354.138 895.568 354.913 892.991 356.462 891.176C358.01 889.348 360.181 888.434 362.974 888.434C365.78 888.434 367.951 889.348 369.487 891.176C371.036 892.991 371.81 895.568 371.81 898.907C371.81 902.233 371.036 904.811 369.487 906.639C367.951 908.467 365.78 909.381 362.974 909.381ZM362.974 905.763C364.46 905.763 365.602 905.166 366.402 903.973C367.214 902.779 367.621 901.091 367.621 898.907C367.621 896.711 367.214 895.022 366.402 893.842C365.602 892.648 364.46 892.052 362.974 892.052C361.489 892.052 360.34 892.648 359.527 893.842C358.728 895.022 358.328 896.711 358.328 898.907C358.328 901.091 358.728 902.779 359.527 903.973C360.34 905.166 361.489 905.763 362.974 905.763Z" fill="white" fill-opacity="0.25"/>
<path d="M385.04 900.316L383.859 893.994H385.421C385.649 890.287 387.503 888.434 390.981 888.434C393.063 888.434 394.574 889.03 395.513 890.224C396.453 891.417 396.922 893.347 396.922 896.013H392.923C392.923 894.54 392.701 893.48 392.257 892.833C391.825 892.185 391.121 891.861 390.143 891.861C388.429 891.861 387.147 892.598 386.297 894.07C385.459 895.53 385.04 897.612 385.04 900.316ZM376.508 909V905.458H389.991V909H376.508ZM381.003 909V888.814H384.278L385.04 894.604V909H381.003ZM377.27 892.356V888.814H384.011L384.392 892.356H377.27Z" fill="white" fill-opacity="0.25"/>
<path d="M399.85 918.141L399.659 914.522L402.82 914.142C404.154 913.977 405.29 913.615 406.229 913.056C407.181 912.498 407.994 911.666 408.667 910.562C409.34 909.47 409.93 908.035 410.438 906.258L415.465 888.814H419.654L413.827 907.21C413.066 909.622 412.209 911.564 411.257 913.037C410.317 914.51 409.2 915.614 407.905 916.351C406.623 917.087 405.08 917.557 403.278 917.76L399.85 918.141ZM407.505 909L399.469 888.814H403.658L410.247 905.953H410.857V909H407.505Z" fill="white" fill-opacity="0.25"/>
<path d="M441.929 904.925L423.686 897.422V893.575L441.929 886.072V890.262L427.838 895.327V895.67L441.929 900.735V904.925Z" fill="white" fill-opacity="0.25"/>
<path d="M447.466 912.618L462.776 878.341H466.813L451.503 912.618H447.466Z" fill="white" fill-opacity="0.25"/>
<path d="M484.346 909V895.86C484.346 894.578 484.029 893.594 483.394 892.909C482.76 892.21 481.871 891.861 480.728 891.861C477.555 891.861 475.968 893.791 475.968 897.65L474.787 892.471H476.348C476.463 891.112 476.958 890.103 477.834 889.443C478.71 888.77 479.992 888.434 481.68 888.434C483.813 888.434 485.464 889.081 486.632 890.376C487.8 891.671 488.384 893.499 488.384 895.86V909H484.346ZM471.93 909V880.436H475.968V909H471.93Z" fill="white" fill-opacity="0.25"/>
<path d="M502.184 909V881.959H506.145V909H502.184ZM495.405 909V905.382H502.565V909H495.405ZM505.765 909V905.382H512.201V909H505.765ZM495.786 888.091V884.244L502.184 881.959V885.882L495.786 888.091Z" fill="white" fill-opacity="0.25"/>
<path d="M518.385 904.925V900.735L531.715 895.67V895.327L518.385 890.262V886.072L536.628 893.575V897.422L518.385 904.925Z" fill="white" fill-opacity="0.25"/>
<path d="M1678.2 358.326L1608.03 329.469V314.674L1678.2 285.816V301.93L1624 321.412V322.73L1678.2 342.213V358.326Z" fill="white" fill-opacity="0.25"/>
<path d="M1701.83 358.326V342.213L1753.1 322.73V321.412L1701.83 301.93V285.816L1772 314.674V329.469L1701.83 358.326Z" fill="white" fill-opacity="0.25"/>
<path d="M815.828 141.648V43.6797H828.203L829.492 58.1172V141.648H815.828ZM848.893 113.289C843.65 113.289 839.418 112.086 836.195 109.68C833.016 107.273 831.211 103.922 830.781 99.625H824.852L829.492 80.1602C829.492 87.207 830.867 92.5566 833.617 96.209C836.41 99.8613 840.492 101.688 845.863 101.688C851.363 101.688 855.531 99.7324 858.367 95.8223C861.203 91.9121 862.621 86.1328 862.621 78.4844C862.621 70.4062 861.203 64.3047 858.367 60.1797C855.531 56.0547 851.363 53.9922 845.863 53.9922C840.492 53.9922 836.41 55.8184 833.617 59.4707C830.867 63.123 829.492 68.4727 829.492 75.5195L824.852 56.0547H830.137C830.738 51.7578 832.672 48.4062 835.938 46C839.246 43.5938 843.564 42.3906 848.893 42.3906C857.873 42.3906 864.662 45.4414 869.26 51.543C873.857 57.6445 876.156 66.625 876.156 78.4844C876.156 89.9141 873.857 98.5723 869.26 104.459C864.662 110.346 857.873 113.289 848.893 113.289Z" fill="white" fill-opacity="0.11"/>
<path d="M918.355 82.6094L914.359 61.2109H919.644C920.417 48.6641 926.691 42.3906 938.464 42.3906C945.511 42.3906 950.625 44.4102 953.804 48.4492C956.984 52.4883 958.574 59.0195 958.574 68.043H945.039C945.039 63.0586 944.287 59.4707 942.783 57.2793C941.322 55.0879 938.937 53.9922 935.628 53.9922C929.828 53.9922 925.488 56.4844 922.609 61.4688C919.773 66.4102 918.355 73.457 918.355 82.6094ZM889.48 112V100.012H935.113V112H889.48ZM904.691 112V43.6797H915.777L918.355 63.2734V112H904.691ZM892.058 55.668V43.6797H914.875L916.164 55.668H892.058Z" fill="white" fill-opacity="0.11"/>
<path d="M999.999 112V47.5469H1013.66V112H999.999ZM973.96 112V100.012H1001.29V112H973.96ZM1012.37 112V100.012H1034.67V112H1012.37ZM977.827 55.668V43.6797H1013.66V55.668H977.827ZM1006.38 32.8516C1003.76 32.8516 1001.5 31.9277 999.612 30.0801C997.765 28.1895 996.841 25.9336 996.841 23.3125C996.841 20.6484 997.765 18.3926 999.612 16.5449C1001.5 14.6973 1003.76 13.7734 1006.38 13.7734C1009.04 13.7734 1011.3 14.6973 1013.15 16.5449C1015 18.3926 1015.92 20.6484 1015.92 23.3125C1015.92 25.9336 1015 28.1895 1013.15 30.0801C1011.3 31.9277 1009.04 32.8516 1006.38 32.8516Z" fill="white" fill-opacity="0.11"/>
<path d="M1095.82 112V67.5273C1095.82 63.4023 1094.75 60.2227 1092.6 57.9883C1090.45 55.7539 1087.44 54.6367 1083.58 54.6367C1072.83 54.6367 1067.46 60.9531 1067.46 73.5859L1063.47 56.0547H1068.75C1069.14 51.457 1070.81 48.041 1073.78 45.8066C1076.74 43.5293 1081.08 42.3906 1086.8 42.3906C1094.02 42.3906 1099.6 44.582 1103.56 48.9648C1107.51 53.3477 1109.49 59.5352 1109.49 67.5273V112H1095.82ZM1053.8 112V43.6797H1066.17L1067.46 58.1172V112H1053.8Z" fill="white" fill-opacity="0.11"/>
<path d="M1173.34 113.289C1162.99 113.289 1155.49 111.141 1150.85 106.844C1146.25 102.547 1143.95 95.6719 1143.95 86.2188V74.6172H1157.62V85.5742C1157.62 90.9883 1158.93 94.9199 1161.55 97.3691C1164.21 99.8184 1168.57 101.043 1174.63 101.043C1176.78 101.043 1179.06 100.936 1181.46 100.721C1183.87 100.463 1186.62 100.141 1189.71 99.7539L1191.26 111.742C1188.25 112.258 1185.31 112.645 1182.43 112.902C1179.59 113.16 1176.56 113.289 1173.34 113.289ZM1143.95 79.7734V23.0547H1157.62V79.7734H1143.95ZM1126.81 55.668V43.6797H1188.68V55.668H1126.81Z" fill="white" fill-opacity="0.11"/>
<path d="M1227.53 112V49.4805C1227.53 25.8477 1238.31 14.0312 1259.88 14.0312C1264.78 14.0312 1269.51 14.4609 1274.06 15.3203L1272.65 27.1797C1269.94 26.8359 1267.55 26.5996 1265.49 26.4707C1263.43 26.3418 1261.43 26.2773 1259.5 26.2773C1247.29 26.2773 1241.19 33.7969 1241.19 48.8359V112H1227.53ZM1206 70.75V58.7617H1269.17V70.75H1206Z" fill="white" fill-opacity="0.11"/>
<path d="M1342.17 124.891C1328.21 124.891 1317.36 119.756 1309.62 109.486C1301.93 99.1738 1298.09 84.6289 1298.09 65.8516C1298.09 47.332 1301.93 33.002 1309.62 22.8613C1317.36 12.6777 1328.21 7.58594 1342.17 7.58594H1345.27V19.1875H1343.46C1333.28 19.1875 1325.42 23.2695 1319.87 31.4336C1314.37 39.5977 1311.62 51.0703 1311.62 65.8516C1311.62 80.8906 1314.37 92.5566 1319.87 100.85C1325.42 109.143 1333.28 113.289 1343.46 113.289H1345.27V124.891H1342.17Z" fill="white" fill-opacity="0.11"/>
<path d="M1391.98 67.5273C1385.23 67.5273 1380.12 65.873 1376.64 62.5645C1373.16 59.2559 1371.42 54.4219 1371.42 48.0625C1371.42 44.1094 1372.34 40.0059 1374.19 35.752C1376.04 31.498 1378.87 27.2871 1382.7 23.1191L1386.31 19.1875L1395.97 27.6953L1392.11 31.8848C1389.61 34.5488 1387.74 37.2559 1386.5 40.0059C1385.25 42.7129 1384.63 45.3984 1384.63 48.0625C1384.63 50.5547 1385.42 52.4453 1387.01 53.7344C1388.6 54.9805 1390.9 55.6035 1393.91 55.6035H1396.81V67.5273H1391.98ZM1421.63 67.5273C1414.88 67.5273 1409.77 65.873 1406.29 62.5645C1402.81 59.2559 1401.07 54.4219 1401.07 48.0625C1401.07 44.1094 1401.99 40.0059 1403.84 35.752C1405.68 31.498 1408.52 27.2871 1412.34 23.1191L1415.95 19.1875L1425.62 27.6953L1421.75 31.8848C1419.26 34.5488 1417.39 37.2559 1416.15 40.0059C1414.9 42.7129 1414.28 45.3984 1414.28 48.0625C1414.28 50.5547 1415.07 52.4453 1416.66 53.7344C1418.25 54.9805 1420.55 55.6035 1423.56 55.6035H1426.46V67.5273H1421.63Z" fill="white" fill-opacity="0.11"/>
<path d="M1492.31 112.645L1491.41 92.4062L1489.61 86.7344V69.0742C1489.61 64.5195 1487.99 61.1895 1484.77 59.084C1481.59 56.9355 1476.84 55.7754 1470.53 55.6035L1454.16 55.1523L1455.45 43.0352L1469.24 43.2285C1480.54 43.4004 1488.92 45.8496 1494.38 50.5762C1499.88 55.2598 1502.63 62.1133 1502.63 71.1367V99.625L1514.23 101.043V112L1492.31 112.645ZM1468.21 113.289C1461.07 113.289 1455.55 111.57 1451.64 108.133C1447.73 104.695 1445.78 99.8398 1445.78 93.5664C1445.78 86.3477 1448.46 80.8047 1453.83 76.9375C1459.25 73.0703 1466.88 71.1367 1476.72 71.1367C1480.8 71.1367 1484.43 71.3945 1487.61 71.9102C1490.83 72.3828 1493.69 73.1133 1496.18 74.1016L1493.34 83.3828C1490.47 82.7383 1487.65 82.373 1484.9 82.2871C1482.15 82.1582 1479.34 82.0938 1476.46 82.0938C1464.6 82.0938 1458.67 85.7031 1458.67 92.9219C1458.67 95.9297 1459.68 98.25 1461.7 99.8828C1463.76 101.516 1466.66 102.332 1470.4 102.332C1474.65 102.332 1478.2 101.602 1481.03 100.141C1483.91 98.6797 1486.06 96.8105 1487.48 94.5332C1488.9 92.2559 1489.61 89.9141 1489.61 87.5078V80.0312L1493.6 97.5625H1488.19L1490.38 95.5C1490.38 99.4531 1489.46 102.762 1487.61 105.426C1485.8 108.047 1483.25 110.023 1479.94 111.355C1476.63 112.645 1472.72 113.289 1468.21 113.289Z" fill="white" fill-opacity="0.11"/>
<path d="M1547.72 113.289C1544.63 113.289 1541.58 113.16 1538.57 112.902C1535.56 112.688 1532.51 112.387 1529.42 112L1534.7 99.4961C1536.98 100.57 1539.5 101.215 1542.25 101.43C1545 101.602 1547.72 101.688 1550.43 101.688C1558.64 101.688 1564.98 99.2168 1569.45 94.2754C1573.96 89.334 1576.21 82.3516 1576.21 73.3281C1576.21 67.1406 1574.84 62.3711 1572.09 59.0195C1569.38 55.668 1565.51 53.9922 1560.49 53.9922C1548.88 53.9922 1543.08 60.5234 1543.08 73.5859L1539.09 56.0547H1544.37C1545.02 46.9453 1550.6 42.3906 1561.13 42.3906C1570.24 42.3906 1577.29 45.0762 1582.27 50.4473C1587.26 55.8184 1589.75 63.4453 1589.75 73.3281C1589.75 86.0039 1586.07 95.8438 1578.73 102.848C1571.42 109.809 1561.09 113.289 1547.72 113.289ZM1529.42 112V15.3203H1543.08V110.84L1529.42 112Z" fill="white" fill-opacity="0.11"/>
<path d="M1636.91 113.289C1627.46 113.289 1620.11 110.195 1614.87 104.008C1609.62 97.8203 1607 89.0977 1607 77.8398C1607 66.5391 1609.62 57.8164 1614.87 51.6719C1620.11 45.4844 1627.46 42.3906 1636.91 42.3906C1646.41 42.3906 1653.75 45.4844 1658.95 51.6719C1664.19 57.8164 1666.82 66.5391 1666.82 77.8398C1666.82 89.0977 1664.19 97.8203 1658.95 104.008C1653.75 110.195 1646.41 113.289 1636.91 113.289ZM1636.91 101.043C1641.94 101.043 1645.8 99.0234 1648.51 94.9844C1651.26 90.9453 1652.64 85.2305 1652.64 77.8398C1652.64 70.4062 1651.26 64.6914 1648.51 60.6953C1645.8 56.6562 1641.94 54.6367 1636.91 54.6367C1631.88 54.6367 1627.99 56.6562 1625.24 60.6953C1622.54 64.6914 1621.18 70.4062 1621.18 77.8398C1621.18 85.2305 1622.54 90.9453 1625.24 94.9844C1627.99 99.0234 1631.88 101.043 1636.91 101.043Z" fill="white" fill-opacity="0.11"/>
<path d="M1709.53 113.289C1702.35 113.289 1696.79 111.162 1692.84 106.908C1688.93 102.611 1686.97 96.5742 1686.97 88.7969V43.6797H1700.64V88.7969C1700.64 92.707 1701.75 95.7363 1703.99 97.8848C1706.22 99.9902 1709.36 101.043 1713.4 101.043C1718.38 101.043 1722.14 99.4746 1724.68 96.3379C1727.21 93.1582 1728.48 87.8516 1728.48 80.418L1731.96 98.8516H1727.45C1726.37 103.492 1724.27 107.059 1721.13 109.551C1717.99 112.043 1714.13 113.289 1709.53 113.289ZM1729.64 112.645L1728.48 96.2734V84.2852H1742.14V99.625L1751.55 101.043V112L1729.64 112.645ZM1728.48 92.6641V43.6797H1742.14V88.7969L1728.48 92.6641Z" fill="white" fill-opacity="0.11"/>
<path d="M1807.93 113.289C1797.58 113.289 1790.08 111.141 1785.44 106.844C1780.84 102.547 1778.54 95.6719 1778.54 86.2188V74.6172H1792.21V85.5742C1792.21 90.9883 1793.52 94.9199 1796.14 97.3691C1798.8 99.8184 1803.16 101.043 1809.22 101.043C1811.37 101.043 1813.65 100.936 1816.05 100.721C1818.46 100.463 1821.21 100.141 1824.3 99.7539L1825.85 111.742C1822.84 112.258 1819.9 112.645 1817.02 112.902C1814.18 113.16 1811.15 113.289 1807.93 113.289ZM1778.54 79.7734V23.0547H1792.21V79.7734H1778.54ZM1761.4 55.668V43.6797H1823.27V55.668H1761.4Z" fill="white" fill-opacity="0.11"/>
<path d="M1887.51 68.8164L1877.85 60.3086L1881.71 56.1191C1884.2 53.4551 1886.07 50.748 1887.32 47.998C1888.57 45.248 1889.19 42.5625 1889.19 39.9414C1889.19 37.4492 1888.39 35.5801 1886.8 34.334C1885.26 33.0449 1882.96 32.4004 1879.91 32.4004H1877.01V20.4766H1881.84C1888.63 20.4766 1893.74 22.1309 1897.18 25.4395C1900.66 28.7051 1902.4 33.5391 1902.4 39.9414C1902.4 43.8516 1901.48 47.9551 1899.63 52.252C1897.78 56.5059 1894.95 60.7168 1891.12 64.8848L1887.51 68.8164ZM1857.86 68.8164L1848.2 60.3086L1852.06 56.1191C1854.56 53.4551 1856.43 50.748 1857.67 47.998C1858.92 45.248 1859.54 42.5625 1859.54 39.9414C1859.54 37.4492 1858.75 35.5801 1857.16 34.334C1855.61 33.0449 1853.31 32.4004 1850.26 32.4004H1847.36V20.4766H1852.19C1858.98 20.4766 1864.1 22.1309 1867.53 25.4395C1871.01 28.7051 1872.75 33.5391 1872.75 39.9414C1872.75 43.8516 1871.83 47.9551 1869.98 52.252C1868.13 56.5059 1865.3 60.7168 1861.47 64.8848L1857.86 68.8164Z" fill="white" fill-opacity="0.11"/>
<path d="M1928.55 124.891V113.289H1930.36C1940.54 113.289 1948.38 109.143 1953.88 100.85C1959.43 92.5566 1962.2 80.8906 1962.2 65.8516C1962.2 51.0703 1959.43 39.5977 1953.88 31.4336C1948.38 23.2695 1940.54 19.1875 1930.36 19.1875H1928.55V7.58594H1931.65C1945.65 7.58594 1956.5 12.6777 1964.19 22.8613C1971.89 33.002 1975.73 47.332 1975.73 65.8516C1975.73 84.6289 1971.89 99.1738 1964.19 109.486C1956.5 119.756 1945.65 124.891 1931.65 124.891H1928.55Z" fill="white" fill-opacity="0.11"/>
<path d="M2033.53 61.4688C2030.91 61.4688 2028.65 60.5449 2026.76 58.6973C2024.91 56.8066 2023.99 54.5508 2023.99 51.9297C2023.99 49.2656 2024.91 47.0098 2026.76 45.1621C2028.65 43.3145 2030.91 42.3906 2033.53 42.3906C2036.19 42.3906 2038.45 43.3145 2040.3 45.1621C2042.14 47.0098 2043.07 49.2656 2043.07 51.9297C2043.07 54.5508 2042.14 56.8066 2040.3 58.6973C2038.45 60.5449 2036.19 61.4688 2033.53 61.4688ZM2021.41 140.102L2026.57 95.6289H2041.52L2033.79 140.102H2021.41Z" fill="white" fill-opacity="0.11"/>
</g>
<defs>
<filter id="filter0_f_920_21" x="-100.173" y="0.885938" width="3080.84" height="923.955" filterUnits="userSpaceOnUse" color-interpolation-filters="sRGB">
<feFlood flood-opacity="0" result="BackgroundImageFix"/>
<feBlend mode="normal" in="SourceGraphic" in2="BackgroundImageFix" result="shape"/>
<feGaussianBlur stdDeviation="3.35" result="effect1_foregroundBlur_920_21"/>
</filter>
</defs>
</svg>
